<svg version="1.1" id="Layer_1" xmlns="http://www.w3.org/2000/svg" xmlns:xlink="http://www.w3.org/1999/xlink" x="0px" y="0px"
	 width="100%" viewBox="0 0 1024 1024" enable-background="new 0 0 1024 1024" xml:space="preserve">
<path fill="#FEFEFE" opacity="1.000000" stroke="none" 
	d="
M653.000000,1025.000000 
	C435.333344,1025.000000 218.166672,1025.000000 1.000000,1025.000000 
	C1.000000,683.666687 1.000000,342.333344 1.000000,1.000000 
	C342.333344,1.000000 683.666687,1.000000 1025.000000,1.000000 
	C1025.000000,342.333344 1025.000000,683.666687 1025.000000,1025.000000 
	C901.166687,1025.000000 777.333313,1025.000000 653.000000,1025.000000 
M404.251099,276.767029 
	C404.042877,277.035858 403.834686,277.304718 403.511963,277.452057 
	C403.511963,277.452057 403.345856,277.469147 402.723145,277.604279 
	C391.486511,285.976410 380.249878,294.348541 368.386871,303.020508 
	C360.239166,312.003632 352.091431,320.986725 343.391907,330.248230 
	C342.842346,331.099792 342.292786,331.951355 341.730957,332.838928 
	C341.730957,332.838928 341.718811,332.791931 341.153931,333.147064 
	C334.185608,344.786987 327.217285,356.426910 319.785919,368.623291 
	C317.269043,374.766144 314.752167,380.908997 311.903687,387.588409 
	C311.817749,387.994995 311.731842,388.401581 311.732147,388.891815 
	C311.732147,388.891815 311.771301,388.778259 311.225220,389.250885 
	C307.908447,402.741058 303.239746,416.072479 301.632355,429.763336 
	C299.806305,445.316254 300.717834,461.190521 300.364197,477.857300 
	C302.020203,497.175140 306.121582,515.932983 313.257721,534.733765 
	C313.612335,535.832031 313.898712,536.958069 314.331512,538.024597 
	C327.264160,569.893616 346.531738,597.287781 372.626648,619.724609 
	C389.250214,634.017761 407.425995,645.936096 428.386749,654.547607 
	C429.905548,655.079163 431.424377,655.610718 433.311462,656.602966 
	C433.876648,656.729248 434.441864,656.855591 435.498993,657.422913 
	C436.331421,657.662354 437.163849,657.901794 438.152039,658.271729 
	C438.152039,658.271729 438.341522,658.198242 438.869141,658.758667 
	C442.567749,659.880310 446.266327,661.001953 450.377655,662.523010 
	C450.931610,662.619812 451.485535,662.716675 452.722839,663.146912 
	C482.053711,671.616455 511.880798,673.855652 542.099243,669.710754 
	C558.570801,667.451355 574.741333,663.736572 590.049011,657.038330 
	C590.049011,657.038330 590.031189,657.103638 590.669922,657.095093 
	C591.411072,656.721008 592.152222,656.346924 593.642273,655.961243 
	C603.118774,651.017456 612.595215,646.073669 622.794983,641.056091 
	C635.834351,634.134521 647.364380,625.174500 658.618713,614.763855 
	C666.126709,606.529602 673.634766,598.295349 681.721436,589.736267 
	C684.725769,585.604858 688.046204,581.663086 690.663513,577.299438 
	C695.039246,570.003967 698.965881,562.439026 703.252930,554.724182 
	C703.252930,554.724182 703.103210,554.447876 703.679077,554.155090 
	C703.900757,553.799500 704.122498,553.443848 704.825989,552.612793 
	C711.901794,538.438904 716.982117,523.590027 720.006348,507.408234 
	C720.034241,507.000580 720.062073,506.592926 720.776245,505.850311 
	C722.594971,492.010529 725.072449,478.215302 726.011719,464.316071 
	C726.691101,454.262238 725.805847,444.018860 724.718628,433.957214 
	C723.913757,426.507477 721.661560,419.214172 720.171875,411.201233 
	C719.944214,409.423462 719.922241,407.590149 719.459045,405.876007 
	C704.720764,351.336426 673.428833,308.948669 625.645142,278.871246 
	C603.598877,264.994263 579.710083,255.596054 553.245972,250.871475 
	C552.501587,250.930084 551.757202,250.988693 550.571899,250.963730 
	C550.571899,250.963730 550.123108,250.958267 549.698486,250.289322 
	C548.143372,250.232681 546.588318,250.176025 544.422424,249.961624 
	C544.002075,249.954239 543.581787,249.946854 542.673462,249.252014 
	C539.045288,248.856140 535.417114,248.460266 531.335388,247.773102 
	C530.433044,247.811279 529.530640,247.849457 527.932068,247.629578 
	C518.500366,247.691986 509.068634,247.754410 498.990387,247.538803 
	C497.399170,247.711319 495.807922,247.883835 493.312073,247.952621 
	C481.870239,249.985947 470.428406,252.019257 458.445465,254.074005 
	C458.250153,254.369339 458.054840,254.664658 457.135864,254.964996 
	C456.420074,255.002823 455.704315,255.040649 454.390991,255.072891 
	C454.114166,255.344849 453.837372,255.616806 452.816162,255.733093 
	C449.690216,256.768097 446.564270,257.803131 442.713104,258.826324 
	C430.424011,264.524475 418.134918,270.222626 405.348724,275.984070 
	C404.990173,276.089355 404.776825,276.325714 404.789856,276.828979 
	C404.789856,276.828979 404.787872,276.670715 404.251099,276.767029 
M732.054932,747.989807 
	C732.048096,747.499573 732.041321,747.009338 732.723633,746.300842 
	C738.400269,738.519531 743.995483,730.676331 749.827698,723.013489 
	C750.892517,721.614441 752.808899,720.408752 754.528870,720.045837 
	C760.361694,718.815247 764.480469,715.215759 765.021851,710.272217 
	C765.618225,704.826294 763.303284,700.679688 758.483215,698.559998 
	C753.053162,696.172119 748.434814,697.192688 744.463501,702.567810 
	C736.758789,712.996155 729.395386,723.676636 721.284729,733.924255 
	C716.969910,728.211853 712.738403,722.433044 708.276367,716.838013 
	C707.276855,715.584717 705.510925,714.280029 704.028015,714.193420 
	C698.630310,713.877869 693.203064,714.068848 686.799988,714.068848 
	C695.345032,725.653442 703.284180,736.416626 711.182983,747.125122 
	C702.876343,758.163086 694.839661,768.842346 686.291443,780.201355 
	C691.937073,780.201355 696.457153,779.900818 700.916260,780.292969 
	C704.738159,780.629150 707.023315,779.119141 709.223145,776.219604 
	C713.332092,770.803711 717.802734,765.662170 722.534546,761.006531 
	C726.989075,767.002197 731.416382,773.018494 735.932861,778.967102 
	C736.490479,779.701477 737.512634,780.524048 738.337585,780.543640 
	C744.072815,780.680481 749.812866,780.615906 756.735107,780.615906 
	C755.104309,778.117615 754.223450,776.599365 753.181946,775.200806 
	C747.822693,768.003723 742.471436,760.799500 737.003235,753.685425 
	C735.547180,751.791199 733.688599,750.206299 732.054932,747.989807 
M508.599182,765.792969 
	C507.049438,763.493103 505.499695,761.193298 503.947968,758.890564 
	C514.288452,752.248230 518.297424,743.977844 516.545654,733.918945 
	C514.662048,723.103210 507.683777,716.591187 497.473724,715.610779 
	C485.008514,714.413757 472.340790,715.325867 459.547180,715.325867 
	C459.547180,736.632874 459.547180,758.329651 459.547180,780.026306 
	C464.789886,780.026306 469.708588,780.026306 474.969543,780.026306 
	C474.969543,773.761963 474.969543,767.814941 474.969543,761.567017 
	C478.278351,761.567017 481.275940,761.848206 484.197662,761.497437 
	C488.046753,761.035339 490.273254,762.430359 492.091034,765.851318 
	C494.347473,770.097595 497.188263,774.049133 499.974976,777.987610 
	C500.728912,779.053162 502.165375,780.229370 503.347076,780.294617 
	C508.095886,780.556702 512.867676,780.403076 518.358582,780.403076 
	C514.896240,775.224243 511.947327,770.813416 508.599182,765.792969 
M424.335571,781.135071 
	C435.132538,780.134216 442.859833,774.912537 446.392731,764.463928 
	C449.983887,753.843018 448.715851,743.639587 440.463776,735.812195 
	C430.645905,726.499756 419.306549,726.799438 407.314911,733.949829 
	C407.314911,725.911926 407.314911,718.520630 407.314911,711.140808 
	C402.047607,711.140808 397.343872,711.140808 392.432007,711.140808 
	C392.432007,734.310425 392.432007,757.068970 392.432007,779.990723 
	C397.096588,779.990723 401.523376,779.990723 406.013580,779.990723 
	C406.330292,778.535767 406.596283,777.313782 406.581726,777.380615 
	C412.377075,778.682983 417.897858,779.923645 424.335571,781.135071 
M274.702759,778.890076 
	C282.098389,779.645447 289.509094,781.070435 296.884064,780.904663 
	C301.297089,780.805420 305.964111,778.787109 309.964722,776.614502 
	C316.169189,773.244995 318.904419,767.312683 318.716583,760.320068 
	C318.525635,753.211487 314.572632,748.356567 308.116882,745.990723 
	C300.950684,743.364502 293.429718,741.689941 286.318329,738.941101 
	C284.158081,738.106079 281.326691,734.918701 281.523834,733.104431 
	C281.772491,730.815369 284.477325,727.576172 286.713409,726.986145 
	C290.739014,725.924011 295.268341,726.031738 299.467590,726.575317 
	C303.660370,727.118103 307.706512,728.794189 312.216522,730.088013 
	C313.605255,726.479248 315.003387,722.846069 316.583008,718.741211 
	C302.596069,712.675354 288.987457,710.772278 275.311493,717.627075 
	C268.473938,721.054199 265.281677,727.208069 265.599976,734.890198 
	C265.918335,742.574890 270.037018,747.631287 277.184662,750.132263 
	C281.255432,751.556641 285.480377,752.534058 289.601349,753.823181 
	C293.079254,754.911194 296.750580,755.732544 299.858582,757.508179 
	C301.503174,758.447754 303.098907,761.253479 302.942627,763.063599 
	C302.786530,764.871277 300.731842,767.318298 298.944183,767.997864 
	C296.099976,769.079041 292.614746,769.743958 289.705750,769.132812 
	C282.574554,767.634644 275.617615,765.307007 268.498505,763.286987 
	C263.761627,775.879517 261.760406,772.984192 274.702759,778.890076 
M625.145630,765.494507 
	C625.145630,770.272095 625.145630,775.049683 625.145630,779.906982 
	C630.347839,779.906982 635.058777,779.906982 640.002014,779.906982 
	C640.002014,768.924255 640.362732,758.282410 639.903870,747.676086 
	C639.413940,736.352173 631.318237,729.188904 619.999756,728.824463 
	C613.229797,728.606506 607.415466,730.845215 602.047607,735.338745 
	C601.845032,733.139709 601.697144,731.534363 601.533447,729.758362 
	C596.899719,729.758362 592.487000,729.758362 587.941284,729.758362 
	C587.941284,746.696594 587.941284,763.391907 587.941284,780.005310 
	C592.871094,780.005310 597.482178,780.005310 602.381042,780.005310 
	C602.381042,774.755188 602.298462,769.784302 602.404663,764.817444 
	C602.507507,760.008423 602.273621,755.104614 603.146545,750.421082 
	C604.322205,744.112610 609.480774,741.107788 616.298645,741.814758 
	C621.939026,742.399658 624.888794,745.908447 625.095825,752.518127 
	C625.220825,756.508362 625.134705,760.505310 625.145630,765.494507 
M368.144226,780.213196 
	C371.609253,780.213196 375.074310,780.213196 378.755615,780.213196 
	C378.755615,763.283081 378.755615,746.722046 378.755615,729.908447 
	C373.798523,729.908447 369.060333,729.908447 363.996429,729.908447 
	C363.996429,738.854919 364.128754,747.500305 363.947662,756.139099 
	C363.835876,761.471436 361.838287,766.005859 356.375946,767.904541 
	C348.612335,770.602905 342.469879,766.004089 342.161224,756.980286 
	C341.855072,748.030151 342.094238,739.061279 342.094238,729.838379 
	C336.852417,729.838379 332.095032,729.838379 327.153015,729.838379 
	C327.153015,740.702637 326.531372,751.371826 327.294891,761.940979 
	C328.520935,778.912170 347.071350,787.051575 361.120148,777.233826 
	C362.096954,776.551270 363.142853,775.967468 363.132751,775.973755 
	C364.901794,777.749756 366.131226,778.983948 368.144226,780.213196 
M546.674377,729.121460 
	C532.826233,732.597107 525.270935,741.012146 524.904480,753.368713 
	C524.523438,766.218933 530.854675,775.640564 542.403076,779.408691 
	C554.762390,783.441467 568.370483,780.201843 574.148682,771.706970 
	C571.742310,769.089600 569.306580,766.440247 566.899902,763.822571 
	C559.999939,769.187195 553.120911,770.657837 547.088806,768.140869 
	C543.213623,766.523926 540.463928,763.946350 540.070129,759.034912 
	C552.747070,759.034912 565.152161,759.034912 577.497498,759.034912 
	C580.280945,740.103455 567.759033,727.746582 546.674377,729.121460 
M669.913757,763.957458 
	C669.913757,756.523560 669.913757,749.089600 669.913757,741.175171 
	C674.557434,741.175171 678.623108,741.175171 682.506592,741.175171 
	C682.506592,737.274902 682.506592,733.878723 682.506592,730.116333 
	C678.184326,730.116333 674.257446,730.116333 669.921753,730.116333 
	C669.921753,725.827148 669.921753,721.899902 669.921753,717.725098 
	C664.765259,717.725098 660.040039,717.725098 654.964050,717.725098 
	C654.964050,721.978271 654.964050,725.924438 654.964050,730.073425 
	C652.219727,730.253662 649.808716,730.412048 647.317261,730.575623 
	C647.317261,734.414673 647.317261,737.954468 647.317261,741.612122 
	C649.945251,741.727966 652.226013,741.828491 655.052856,741.953064 
	C655.052856,748.885986 655.027893,755.665771 655.058289,762.445312 
	C655.115601,775.235840 661.450195,781.356506 674.265503,781.047852 
	C684.771729,780.794922 686.217468,778.727722 682.545898,769.155823 
	C682.387390,768.742493 681.953674,768.434631 681.683350,768.118896 
	C674.343994,770.351379 672.669678,769.872253 669.913757,763.957458 
z"/>
<path fill="#357DB7" opacity="1.000000" stroke="none" 
	d="
M543.161438,249.939484 
	C543.581787,249.946854 544.002075,249.954239 544.997131,250.301590 
	C547.088928,250.747131 548.606018,250.852692 550.123108,250.958267 
	C550.123108,250.958267 550.571899,250.963730 550.969971,251.243362 
	C552.231995,251.400528 553.096008,251.278061 553.960022,251.155609 
	C579.710083,255.596054 603.598877,264.994263 625.645142,278.871246 
	C673.428833,308.948669 704.720764,351.336426 719.459045,405.876007 
	C719.922241,407.590149 719.944214,409.423462 720.093506,411.951355 
	C719.465759,413.761047 718.731079,415.792236 718.395874,415.728333 
	C715.395386,415.156311 712.465271,414.215332 709.692078,413.433044 
	C708.398743,414.977875 706.715881,417.077515 704.936035,419.091370 
	C702.683105,421.640533 699.558594,421.145752 699.807007,418.118652 
	C700.278015,412.379028 696.728271,410.786316 692.827637,408.782501 
	C691.851624,408.281067 691.306763,406.759125 690.772522,405.609222 
	C688.179443,400.027710 682.942078,399.031677 678.362000,403.036560 
	C676.472595,404.688629 674.053101,405.734467 671.624756,406.933105 
	C670.895874,406.248322 670.416992,405.686432 669.916138,404.770264 
	C668.957031,403.930756 668.019836,403.445587 667.051331,402.969788 
	C667.019958,402.979126 667.039734,402.916687 667.023682,402.559753 
	C666.663757,401.306641 666.557007,400.177338 665.939941,399.549988 
	C658.900574,392.393585 651.820862,385.275421 644.635986,378.265900 
	C643.813843,377.463898 642.287048,377.384186 640.805725,376.855103 
	C640.029785,376.123260 639.535095,375.505890 639.024536,374.533691 
	C636.956421,369.749695 634.229370,366.047760 629.043884,364.973511 
	C629.012024,364.986572 629.039612,364.923523 629.022827,364.557495 
	C627.714478,363.112061 626.422913,362.032684 624.889648,360.838806 
	C624.448059,360.435516 624.248230,360.146729 624.028442,359.499512 
	C622.383423,357.740753 620.758484,356.340454 619.103760,354.932861 
	C619.074036,354.925537 619.059814,354.865936 619.036743,354.514160 
	C618.539734,353.143127 618.298645,351.894684 617.555908,351.140015 
	C610.104736,343.569672 602.612183,336.038300 595.008667,328.621704 
	C594.059753,327.696136 592.400452,327.498810 591.039368,326.977295 
	C591.008423,326.990540 591.035950,326.929138 591.021729,326.570618 
	C588.985229,321.747131 586.233826,318.064606 581.047974,316.971680 
	C581.016235,316.982880 581.039612,316.919830 581.022461,316.553162 
	C579.699341,315.114532 578.393372,314.042633 576.778931,312.838867 
	C573.323914,309.443939 570.177429,306.180847 567.018494,302.560425 
	C561.872864,296.504242 556.789856,290.758484 551.558960,285.150665 
	C550.638306,284.163635 549.098755,283.753906 547.553345,282.919067 
	C542.846375,278.468170 538.430969,274.175751 534.009033,269.520630 
	C532.398865,267.166016 530.830322,265.144287 529.172974,263.198212 
	C528.581177,262.503326 527.349731,262.113281 527.138184,261.375427 
	C526.156799,257.952057 524.476624,257.726318 521.616089,259.450226 
	C520.467712,260.142303 518.624512,260.251068 517.266235,259.924225 
	C512.032898,258.664948 506.900696,263.513153 501.667023,260.094330 
	C501.397247,259.918091 500.609161,260.187195 500.290497,260.489471 
	C497.897980,262.759094 495.068604,262.113892 493.833405,259.965240 
	C492.525177,257.689545 492.185974,254.486206 492.512360,251.821426 
	C492.645447,250.735031 495.566040,249.754776 497.363770,249.184052 
	C498.733612,248.749191 500.333954,248.979126 501.829620,249.011383 
	C515.607117,249.308563 529.384216,249.627136 543.161438,249.939484 
z"/>
<path fill="#342F8E" opacity="1.000000" stroke="none" 
	d="
M313.222046,534.004028 
	C306.121582,515.932983 302.020203,497.175140 300.859497,477.414978 
	C304.598083,477.037598 307.934052,476.677307 311.043854,477.354828 
	C312.500244,477.672119 313.637360,479.911102 314.696533,481.433960 
	C315.394867,482.438080 315.717560,484.730957 316.172485,484.721466 
	C322.197662,484.595886 320.885620,489.507416 322.019989,492.789276 
	C323.353577,496.647614 324.025574,501.219513 326.581329,504.029724 
	C328.982819,506.670258 333.379730,507.661041 337.049622,508.946960 
	C343.696350,511.276062 350.278381,513.373108 353.823303,520.394653 
	C355.234680,523.190247 357.462860,525.644348 359.628754,527.964905 
	C361.255371,529.707764 363.585724,530.789795 365.232361,532.518799 
	C368.331146,535.772705 371.888000,536.453186 375.293335,534.139282 
	C376.922424,535.542358 378.278168,536.775085 379.572449,538.069336 
	C417.045929,575.541382 454.544037,612.988953 491.938568,650.539673 
	C496.130615,654.749268 500.904968,657.686768 506.707550,657.823303 
	C512.863770,657.968079 518.898865,657.838623 524.156128,652.824402 
	C528.930420,648.270813 530.891113,643.013000 532.322205,637.289307 
	C532.839172,639.838379 533.078613,642.109375 533.316467,644.365112 
	C534.596924,644.478943 535.652954,644.572815 537.024292,644.694763 
	C537.024292,646.621460 536.538330,648.472046 537.132202,649.860962 
	C538.157349,652.258545 539.359985,655.243103 541.387817,656.388550 
	C544.188904,657.970825 547.086304,658.705383 547.524353,662.582825 
	C547.617432,663.406982 549.176147,664.750916 549.985718,664.699280 
	C555.956970,664.317993 562.004211,664.115540 567.844177,662.943481 
	C575.351501,661.436646 582.687744,659.077698 590.097717,657.085815 
	C574.741333,663.736572 558.570801,667.451355 542.099243,669.710754 
	C511.880798,673.855652 482.053711,671.616455 452.634064,662.745544 
	C453.190674,662.203308 454.026978,662.273499 454.452026,661.889099 
	C458.779999,657.974304 463.147186,654.089172 467.221680,649.920410 
	C467.943268,649.182129 467.980316,646.653320 467.288666,645.841736 
	C463.502869,641.399780 459.430389,637.197632 455.372925,632.993652 
	C453.633148,631.191101 451.559601,629.704346 449.869263,627.861633 
	C446.330994,624.004517 443.056610,619.899658 439.417603,616.144897 
	C438.558594,615.258606 436.693878,615.099304 435.276184,615.049377 
	C431.284027,614.908813 427.237152,615.367126 423.303223,614.868286 
	C420.712982,614.539978 418.280914,612.963928 415.205994,611.714111 
	C421.073669,606.282532 420.825226,604.553162 414.992126,601.508972 
	C413.963196,600.971985 412.915344,600.386719 411.804871,600.105042 
	C406.772247,598.828003 403.552063,596.017456 403.650360,590.923767 
	C399.526550,589.361084 395.938019,587.393127 392.119904,586.711731 
	C387.569702,585.899597 385.526093,582.679138 383.079102,579.604614 
	C382.772522,579.219421 382.398529,578.755249 381.965668,578.623230 
	C376.466888,576.946167 376.450592,572.159912 376.061798,567.824463 
	C375.482025,561.359985 373.017059,558.752625 366.571136,557.845947 
	C364.906433,557.611877 363.448120,556.113281 361.824799,555.343628 
	C357.278900,553.188232 352.875702,550.412781 348.082367,549.179932 
	C342.213135,547.670349 339.965851,545.566528 340.694000,539.540955 
	C341.230133,535.104492 333.610535,529.185059 329.344116,530.366821 
	C324.041138,531.835632 318.602234,532.813904 313.222046,534.004028 
z"/>
<path fill="#34298D" opacity="1.000000" stroke="none" 
	d="
M313.239868,534.368896 
	C318.602234,532.813904 324.041138,531.835632 329.344116,530.366821 
	C333.610535,529.185059 341.230133,535.104492 340.694000,539.540955 
	C339.965851,545.566528 342.213135,547.670349 348.082367,549.179932 
	C352.875702,550.412781 357.278900,553.188232 361.824799,555.343628 
	C363.448120,556.113281 364.906433,557.611877 366.571136,557.845947 
	C373.017059,558.752625 375.482025,561.359985 376.061798,567.824463 
	C376.450592,572.159912 376.466888,576.946167 381.965668,578.623230 
	C382.398529,578.755249 382.772522,579.219421 383.079102,579.604614 
	C385.526093,582.679138 387.569702,585.899597 392.119904,586.711731 
	C395.938019,587.393127 399.526550,589.361084 403.650360,590.923767 
	C403.552063,596.017456 406.772247,598.828003 411.804871,600.105042 
	C412.915344,600.386719 413.963196,600.971985 414.992126,601.508972 
	C420.825226,604.553162 421.073669,606.282532 415.205994,611.714111 
	C418.280914,612.963928 420.712982,614.539978 423.303223,614.868286 
	C427.237152,615.367126 431.284027,614.908813 435.276184,615.049377 
	C436.693878,615.099304 438.558594,615.258606 439.417603,616.144897 
	C443.056610,619.899658 446.330994,624.004517 449.869263,627.861633 
	C451.559601,629.704346 453.633148,631.191101 455.372925,632.993652 
	C459.430389,637.197632 463.502869,641.399780 467.288666,645.841736 
	C467.980316,646.653320 467.943268,649.182129 467.221680,649.920410 
	C463.147186,654.089172 458.779999,657.974304 454.452026,661.889099 
	C454.026978,662.273499 453.190674,662.203308 452.292389,662.578857 
	C451.485535,662.716675 450.931610,662.619812 450.023499,661.983948 
	C445.893433,660.362671 442.117462,659.280457 438.341522,658.198242 
	C438.341522,658.198242 438.152039,658.271729 438.037903,657.872437 
	C436.951538,657.309387 435.979309,657.145630 435.007050,656.981873 
	C434.441864,656.855591 433.876648,656.729248 433.079773,655.989807 
	C431.210571,654.926575 429.573059,654.476440 427.935547,654.026367 
	C407.425995,645.936096 389.250214,634.017761 372.626648,619.724609 
	C346.531738,597.287781 327.264160,569.893616 314.331512,538.024597 
	C313.898712,536.958069 313.612335,535.832031 313.239868,534.368896 
z"/>
<path fill="#364092" opacity="1.000000" stroke="none" 
	d="
M590.073364,657.062073 
	C582.687744,659.077698 575.351501,661.436646 567.844177,662.943481 
	C562.004211,664.115540 555.956970,664.317993 549.985718,664.699280 
	C549.176147,664.750916 547.617432,663.406982 547.524353,662.582825 
	C547.086304,658.705383 544.188904,657.970825 541.387817,656.388550 
	C539.359985,655.243103 538.157349,652.258545 537.132202,649.860962 
	C536.538330,648.472046 537.024292,646.621460 537.024292,644.694763 
	C535.652954,644.572815 534.596924,644.478943 533.316467,644.365112 
	C533.078613,642.109375 532.839172,639.838379 532.300171,636.886353 
	C532.012085,635.130493 532.023499,634.055603 532.303589,632.737061 
	C531.713257,629.995605 530.854248,627.497803 529.719727,624.815369 
	C523.126038,618.087769 516.865845,611.487610 510.475586,605.015869 
	C501.970001,596.401855 493.360535,587.890320 484.800323,579.330200 
	C469.746552,564.276489 454.677094,549.238403 439.674835,534.133545 
	C438.203186,532.651855 437.153320,530.751282 436.271637,529.065674 
	C440.005188,530.828735 443.265808,531.635132 446.261475,528.101318 
	C446.992828,528.473755 447.471313,528.739746 448.205414,529.235352 
	C451.289124,536.933838 456.590881,542.362244 463.209778,546.428406 
	C478.605438,555.886414 494.096680,565.192383 509.688385,574.322266 
	C511.278717,575.253479 514.141724,575.286133 515.847473,574.502441 
	C520.639587,572.300598 525.135437,569.454102 530.078979,566.886841 
	C530.914490,566.569397 531.419128,566.226868 531.957031,565.938477 
	C531.990234,565.992676 531.920166,565.881104 532.343384,565.921387 
	C536.643005,567.164978 540.519409,568.368164 545.311890,569.855713 
	C541.289368,571.735413 540.765381,573.683105 544.475769,575.708313 
	C544.936523,575.959778 544.850403,577.213196 544.868713,578.245361 
	C544.199219,578.686218 543.678711,578.884094 542.837402,579.072632 
	C542.036987,579.412598 541.557373,579.761963 541.035400,580.095947 
	C540.992981,580.080566 541.081543,580.085327 540.845337,580.162109 
	C540.309082,580.420837 540.118103,580.682373 540.020996,581.015869 
	C540.005981,581.008179 540.015442,581.040710 539.711182,581.047363 
	C538.959045,581.404724 538.511169,581.755493 538.027222,582.074524 
	C537.991028,582.042847 538.082642,582.071899 537.848267,582.146545 
	C537.317383,582.394470 537.113647,582.643616 536.788330,583.232910 
	C530.367676,587.283386 524.161377,591.069702 516.593750,595.686523 
	C521.816467,598.308105 525.422852,600.118347 529.304565,602.243103 
	C543.002136,602.708374 556.440979,602.526062 569.837341,603.194580 
	C574.385559,603.421631 578.867859,605.683960 583.271729,607.310120 
	C583.919495,607.549316 583.932983,609.434082 584.294373,610.539612 
	C584.759949,611.963806 584.857361,613.995728 585.854431,614.669983 
	C589.194153,616.928467 593.157532,618.311401 596.350403,620.731201 
	C605.069397,627.339050 613.516663,634.305542 622.071655,641.129883 
	C612.595215,646.073669 603.118774,651.017456 592.937134,655.993591 
	C591.498413,656.385132 590.764832,656.744385 590.031189,657.103638 
	C590.031189,657.103638 590.049011,657.038330 590.073364,657.062073 
z"/>
<path fill="#364195" opacity="1.000000" stroke="none" 
	d="
M446.008575,527.994812 
	C443.265808,531.635132 440.005188,530.828735 436.044891,529.065063 
	C435.454224,529.043823 434.999390,529.018127 434.959167,528.695740 
	C434.281433,527.915588 433.643860,527.457764 432.848969,526.718384 
	C431.466156,525.282837 430.240692,524.128967 429.155090,522.651794 
	C430.763092,519.811035 432.177826,517.260437 433.711914,514.783752 
	C436.019928,511.057465 436.921753,507.273529 435.498260,503.907715 
	C428.929138,506.426270 422.962738,508.713745 416.696014,510.858429 
	C412.934814,507.136536 409.473938,503.557434 406.150635,499.665985 
	C407.144379,498.389343 408.236298,497.541290 408.786102,496.425995 
	C409.274017,495.436157 409.647980,493.380951 409.233337,493.117737 
	C406.344696,491.284271 403.903229,487.083771 399.889587,490.570099 
	C398.127808,489.640839 396.571564,488.820007 394.828003,487.745178 
	C394.102570,486.656403 393.564453,485.821655 393.290527,484.762207 
	C392.067444,480.692780 390.580139,476.848053 389.066895,472.603821 
	C389.051819,471.137390 389.062714,470.070435 389.443237,468.996277 
	C391.295685,467.420624 392.778534,465.852173 394.261383,464.283722 
	C393.907806,463.962616 393.554260,463.641510 393.200684,463.320404 
	C392.104309,463.548431 391.007935,463.776428 389.910217,463.561401 
	C389.920929,460.755280 389.932922,458.392212 390.245117,455.752991 
	C390.669495,453.176697 390.998718,450.859833 390.813019,448.584991 
	C390.742645,447.722870 389.513794,446.343109 388.761810,446.308380 
	C387.880432,446.267731 386.943268,447.435883 386.022217,448.312927 
	C386.014160,448.546143 385.961761,449.009918 385.666931,449.156006 
	C384.254425,450.883911 383.136749,452.465729 381.888306,454.343811 
	C380.806335,455.751495 379.855133,456.862885 378.559723,457.988892 
	C377.478485,458.671844 376.741394,459.340240 376.002136,460.004333 
	C376.000000,460.000000 376.008606,460.004425 375.647766,460.038788 
	C373.856842,461.696960 372.426758,463.320770 370.702606,465.103210 
	C368.307251,466.858978 366.205963,468.456146 363.722229,470.033325 
	C362.444000,469.662964 361.272156,469.561127 360.696808,468.922150 
	C356.719666,464.505493 352.929260,459.920135 348.928619,455.525726 
	C347.971436,454.474365 346.538391,453.579437 345.167175,453.231689 
	C340.300751,451.997620 337.620880,448.618561 336.060333,444.233246 
	C334.954620,441.126099 333.217438,440.702148 330.351440,441.799377 
	C324.248383,444.136047 317.870331,441.186829 315.933807,434.938751 
	C314.896759,431.592804 313.131104,429.775452 309.743683,428.691437 
	C304.638458,427.057739 303.568237,424.524628 304.992126,419.240936 
	C305.803284,416.230988 307.064789,413.327789 307.700012,410.288025 
	C309.192444,403.146362 310.430359,395.951569 311.771301,388.778259 
	C311.771301,388.778259 311.732147,388.891815 311.961304,388.818359 
	C312.205414,388.180542 312.220367,387.616180 312.235291,387.051849 
	C314.752167,380.908997 317.269043,374.766144 320.249451,368.566315 
	C327.955444,378.110870 331.956421,390.389709 343.692566,396.302032 
	C344.343292,396.629822 344.589142,397.682312 345.152679,398.274445 
	C350.231110,403.610046 354.217133,410.057739 361.124969,413.533722 
	C363.377106,414.666962 366.013275,415.957520 367.281586,417.939209 
	C370.180634,422.468689 374.322723,424.337311 379.222565,424.950684 
	C384.044464,425.554291 385.667786,428.363037 383.607422,433.065247 
	C383.313293,433.736572 383.309540,434.535156 383.087036,435.726288 
	C384.577179,435.185028 385.517517,434.843475 386.598846,434.450714 
	C385.985077,440.801178 386.822693,441.943756 393.106750,441.910553 
	C396.445038,441.892944 397.680237,443.341614 398.737457,446.207336 
	C399.415527,448.045349 401.316071,449.432404 402.754395,451.453247 
	C402.777374,453.922729 402.714569,455.960541 402.297699,458.126068 
	C401.982819,463.841827 402.022034,469.429840 402.107300,475.232117 
	C402.153351,475.446320 402.172577,475.884125 402.135193,476.188141 
	C402.385986,476.988708 402.674133,477.485260 403.022766,478.338562 
	C407.216492,489.185883 414.375092,495.884979 426.261536,497.269714 
	C428.841949,497.687164 431.622589,499.602203 432.974304,495.674561 
	C432.991760,495.450256 433.076111,495.008301 433.355408,494.699280 
	C433.634735,488.032349 433.634735,481.674408 433.634735,475.316498 
	C434.287415,475.142242 434.940094,474.967987 435.592773,474.793762 
	C436.794403,476.056519 437.996033,477.319305 439.196442,478.580811 
	C440.421204,477.721252 441.647156,476.862946 443.472015,475.585358 
	C443.984711,484.441864 445.255951,492.529907 444.704254,500.491577 
	C444.059723,509.792877 443.179260,518.929993 446.008575,527.994812 
z"/>
<path fill="#364A99" opacity="1.000000" stroke="none" 
	d="
M402.668640,451.021606 
	C401.316071,449.432404 399.415527,448.045349 398.737457,446.207336 
	C397.680237,443.341614 396.445038,441.892944 393.106750,441.910553 
	C386.822693,441.943756 385.985077,440.801178 386.598846,434.450714 
	C385.517517,434.843475 384.577179,435.185028 383.087036,435.726288 
	C383.309540,434.535156 383.313293,433.736572 383.607422,433.065247 
	C385.667786,428.363037 384.044464,425.554291 379.222565,424.950684 
	C374.322723,424.337311 370.180634,422.468689 367.281586,417.939209 
	C366.013275,415.957520 363.377106,414.666962 361.124969,413.533722 
	C354.217133,410.057739 350.231110,403.610046 345.152679,398.274445 
	C344.589142,397.682312 344.343292,396.629822 343.692566,396.302032 
	C331.956421,390.389709 327.955444,378.110870 320.480988,368.288086 
	C327.217285,356.426910 334.185608,344.786987 341.520355,333.349640 
	C345.409332,339.259979 348.848663,345.021545 352.488373,350.653625 
	C354.406464,353.621735 356.518860,356.497437 358.820923,359.176483 
	C362.223572,363.136444 365.820068,366.935242 369.437042,370.703735 
	C371.740936,373.104156 373.970581,375.730011 376.719208,377.501129 
	C378.968170,378.950348 382.566101,378.569183 384.468170,380.245331 
	C390.672607,385.712646 398.422302,390.049927 400.378784,399.167328 
	C400.459595,399.543732 401.465912,399.721527 402.195862,400.377777 
	C402.456696,417.516327 402.562653,434.268982 402.668640,451.021606 
z"/>
<path fill="#3A60A5" opacity="1.000000" stroke="none" 
	d="
M703.103210,554.447876 
	C703.103210,554.447876 703.252930,554.724182 702.809570,554.890564 
	C701.423889,555.176208 699.729126,555.583069 699.648804,555.372803 
	C697.428162,549.562927 694.324097,552.643555 691.267334,554.974854 
	C688.358643,548.352966 684.756592,542.861572 677.966248,540.334045 
	C675.245117,539.321167 672.543945,538.217163 669.938782,536.940247 
	C666.743774,535.374207 663.576294,533.716919 660.552307,531.847717 
	C658.117188,530.342529 655.953186,528.405457 653.590942,526.772888 
	C652.236145,525.836548 650.594727,525.292419 649.308655,524.283264 
	C644.351257,520.393494 642.824341,512.421265 634.793335,512.117554 
	C634.330933,512.100037 633.941101,511.155945 633.449524,510.719757 
	C632.207336,509.617645 630.926270,508.559265 628.997559,506.919434 
	C628.997559,500.610352 628.997559,493.304565 628.997559,485.571564 
	C629.022644,479.415100 633.582458,473.336853 638.920532,472.250244 
	C639.654358,472.699951 640.336670,472.884888 641.021179,473.441498 
	C644.705078,476.498840 648.023071,480.380524 652.140747,481.633301 
	C662.208435,484.696259 669.161865,490.986755 674.804688,499.405609 
	C676.011841,501.206604 677.921997,503.543518 679.720276,503.745483 
	C684.427856,504.274109 686.461487,507.063202 688.533081,510.735809 
	C689.717163,512.834839 692.053284,515.318542 694.175171,515.644104 
	C698.952881,516.377014 703.920166,515.874023 708.675110,515.874023 
	C709.330750,517.212952 709.559326,518.037415 710.061890,518.629150 
	C711.013245,519.749390 712.121826,520.736084 713.165100,521.778259 
	C713.952026,520.205444 715.553467,518.530884 715.372192,517.078918 
	C714.842346,512.834106 717.303284,510.472992 719.912292,508.013794 
	C716.982117,523.590027 711.901794,538.438904 704.275513,552.966064 
	C703.517761,553.695496 703.310486,554.071716 703.103210,554.447876 
z"/>
<path fill="#3972B1" opacity="1.000000" stroke="none" 
	d="
M671.874756,407.056030 
	C674.053101,405.734467 676.472595,404.688629 678.362000,403.036560 
	C682.942078,399.031677 688.179443,400.027710 690.772522,405.609222 
	C691.306763,406.759125 691.851624,408.281067 692.827637,408.782501 
	C696.728271,410.786316 700.278015,412.379028 699.807007,418.118652 
	C699.558594,421.145752 702.683105,421.640533 704.936035,419.091370 
	C706.715881,417.077515 708.398743,414.977875 709.692078,413.433044 
	C712.465271,414.215332 715.395386,415.156311 718.395874,415.728333 
	C718.731079,415.792236 719.465759,413.761047 720.034607,412.276337 
	C721.661560,419.214172 723.913757,426.507477 724.718628,433.957214 
	C725.805847,444.018860 726.691101,454.262238 726.011719,464.316071 
	C725.072449,478.215302 722.594971,492.010529 720.410400,505.592316 
	C720.315247,503.877319 720.518677,502.403992 720.867310,500.965912 
	C723.305603,490.907379 721.438843,487.253967 712.261353,482.492004 
	C710.067383,481.353607 708.638000,478.773895 706.788574,476.925568 
	C705.880188,476.017792 704.937561,474.872772 703.798157,474.519073 
	C700.489868,473.492065 697.065674,472.843994 693.705688,471.974792 
	C692.633606,471.697449 690.769775,471.289307 690.712097,470.778137 
	C690.157227,465.858307 686.550110,465.236023 682.733887,464.210205 
	C679.426331,463.321106 674.502930,462.246002 673.563049,459.927612 
	C670.928711,453.430237 665.361389,455.513062 661.226196,453.727264 
	C664.961060,449.787292 668.270264,445.832520 672.135010,442.527405 
	C680.827881,435.093445 682.246033,417.541748 673.264038,409.605194 
	C672.582336,409.002838 672.327820,407.917084 671.874756,407.056030 
z"/>
<path fill="#353890" opacity="1.000000" stroke="none" 
	d="
M311.498260,389.014587 
	C310.430359,395.951569 309.192444,403.146362 307.700012,410.288025 
	C307.064789,413.327789 305.803284,416.230988 304.992126,419.240936 
	C303.568237,424.524628 304.638458,427.057739 309.743683,428.691437 
	C313.131104,429.775452 314.896759,431.592804 315.933807,434.938751 
	C317.870331,441.186829 324.248383,444.136047 330.351440,441.799377 
	C333.217438,440.702148 334.954620,441.126099 336.060333,444.233246 
	C337.620880,448.618561 340.300751,451.997620 345.167175,453.231689 
	C346.538391,453.579437 347.971436,454.474365 348.928619,455.525726 
	C352.929260,459.920135 356.719666,464.505493 360.696808,468.922150 
	C361.272156,469.561127 362.444000,469.662964 363.568115,470.335144 
	C361.409180,473.397522 359.235779,476.366180 356.598022,478.839661 
	C344.424652,490.254944 345.428497,504.082153 356.616364,515.134338 
	C361.185699,519.648315 365.541962,524.377930 369.999817,529.337646 
	C370.673859,530.105896 371.343201,530.546021 372.293701,531.115845 
	C373.380371,532.162903 374.185822,533.080200 374.991302,533.997559 
	C371.888000,536.453186 368.331146,535.772705 365.232361,532.518799 
	C363.585724,530.789795 361.255371,529.707764 359.628754,527.964905 
	C357.462860,525.644348 355.234680,523.190247 353.823303,520.394653 
	C350.278381,513.373108 343.696350,511.276062 337.049622,508.946960 
	C333.379730,507.661041 328.982819,506.670258 326.581329,504.029724 
	C324.025574,501.219513 323.353577,496.647614 322.019989,492.789276 
	C320.885620,489.507416 322.197662,484.595886 316.172485,484.721466 
	C315.717560,484.730957 315.394867,482.438080 314.696533,481.433960 
	C313.637360,479.911102 312.500244,477.672119 311.043854,477.354828 
	C307.934052,476.677307 304.598083,477.037598 300.897064,476.948883 
	C300.717834,461.190521 299.806305,445.316254 301.632355,429.763336 
	C303.239746,416.072479 307.908447,402.741058 311.498260,389.014587 
z"/>
<path fill="#3968AA" opacity="1.000000" stroke="none" 
	d="
M405.845825,275.920776 
	C418.134918,270.222626 430.424011,264.524475 443.491669,258.873505 
	C445.653351,259.897339 447.161163,260.741150 448.383850,261.888733 
	C449.565399,262.997711 450.488739,264.393402 451.463013,265.709442 
	C454.059021,269.216248 457.550507,272.404541 459.005371,276.340637 
	C462.112427,284.746521 466.170410,290.885956 476.170776,291.798798 
	C480.364410,292.181580 484.332245,295.038544 488.450989,296.791260 
	C488.925598,297.871887 489.194458,299.863434 490.012726,300.122986 
	C495.297424,301.799347 494.349731,304.974304 492.092651,308.410217 
	C494.213593,310.679108 496.110748,312.708649 497.964874,314.692139 
	C495.788635,318.880249 492.783020,320.247711 488.440430,320.139771 
	C485.304108,320.061768 482.135925,321.266235 478.515808,321.927368 
	C466.693268,321.915894 455.336853,321.875702 443.983215,321.468018 
	C443.751862,320.168823 443.786255,319.023560 443.241638,318.338928 
	C438.383453,312.231964 433.461029,306.174561 428.453674,300.189392 
	C427.664246,299.245850 426.366241,298.718964 425.281738,298.033691 
	C424.224487,297.365662 423.002655,296.893311 422.090942,296.071228 
	C418.560577,292.888062 416.042877,288.109924 410.086761,288.902130 
	C409.499512,288.980255 408.699890,288.240570 408.154694,287.717896 
	C406.041229,285.691772 403.990845,283.599915 401.928192,281.543701 
	C402.288330,280.508606 402.817108,278.988892 403.345886,277.469147 
	C403.345856,277.469147 403.511963,277.452057 403.869385,277.549500 
	C404.413818,277.321533 404.600830,276.996124 404.787872,276.670715 
	C404.787872,276.670715 404.789856,276.828979 405.006653,276.841980 
	C405.554474,276.754822 405.885498,276.654663 406.216553,276.554474 
	C406.092987,276.343231 405.969391,276.132019 405.845825,275.920776 
z"/>
<path fill="#37539E" opacity="1.000000" stroke="none" 
	d="
M402.041046,399.991852 
	C401.465912,399.721527 400.459595,399.543732 400.378784,399.167328 
	C398.422302,390.049927 390.672607,385.712646 384.468170,380.245331 
	C382.566101,378.569183 378.968170,378.950348 376.719208,377.501129 
	C373.970581,375.730011 371.740936,373.104156 369.437042,370.703735 
	C365.820068,366.935242 362.223572,363.136444 358.820923,359.176483 
	C356.518860,356.497437 354.406464,353.621735 352.488373,350.653625 
	C348.848663,345.021545 345.409332,339.259979 341.802795,333.172058 
	C341.718811,332.791931 341.730957,332.838928 342.082520,332.858765 
	C342.937317,331.909027 343.440521,330.939423 343.943726,329.969849 
	C352.091431,320.986725 360.239166,312.003632 368.672241,303.254486 
	C369.226074,305.408966 368.814209,307.917999 369.879395,309.149231 
	C374.782166,314.816254 379.565552,320.892517 387.982483,321.569305 
	C388.726898,321.629181 389.602356,322.176849 390.107391,322.764160 
	C394.442871,327.805817 398.707031,332.908813 403.000214,338.393188 
	C402.954620,339.856079 402.901276,340.919312 402.470032,342.093323 
	C401.749969,342.725281 401.114838,343.243530 401.109497,343.768127 
	C401.029419,351.673645 400.978210,359.580750 401.093384,367.484985 
	C401.105804,368.337921 402.196381,369.175110 402.833435,370.484558 
	C402.600342,380.630280 402.320709,390.311066 402.041046,399.991852 
z"/>
<path fill="#37599F" opacity="1.000000" stroke="none" 
	d="
M628.997559,485.998779 
	C628.997559,493.304565 628.997559,500.610352 628.997559,506.919434 
	C630.926270,508.559265 632.207336,509.617645 633.449524,510.719757 
	C633.941101,511.155945 634.330933,512.100037 634.793335,512.117554 
	C642.824341,512.421265 644.351257,520.393494 649.308655,524.283264 
	C650.594727,525.292419 652.236145,525.836548 653.590942,526.772888 
	C655.953186,528.405457 658.117188,530.342529 660.552307,531.847717 
	C663.576294,533.716919 666.743774,535.374207 669.938782,536.940247 
	C672.543945,538.217163 675.245117,539.321167 677.966248,540.334045 
	C684.756592,542.861572 688.358643,548.352966 691.267334,554.974854 
	C694.324097,552.643555 697.428162,549.562927 699.648804,555.372803 
	C699.729126,555.583069 701.423889,555.176208 702.723877,555.022217 
	C698.965881,562.439026 695.039246,570.003967 690.663513,577.299438 
	C688.046204,581.663086 684.725769,585.604858 681.062012,589.848633 
	C678.638794,588.867798 676.508057,588.106689 675.169983,586.628113 
	C665.498108,575.940125 655.392883,565.931519 641.740112,560.199890 
	C639.153381,559.113953 637.338928,556.237915 635.092529,554.274292 
	C633.588074,552.959229 631.950195,551.796814 630.372009,550.566101 
	C629.914673,550.887329 629.457336,551.208557 629.000000,551.529785 
	C629.000000,559.959900 629.063416,568.390930 628.946167,576.819458 
	C628.922852,578.492371 628.206787,580.155579 627.810303,581.434448 
	C627.850769,579.730957 627.891113,578.416382 627.961670,576.645996 
	C627.972595,573.759460 627.953430,571.328857 627.906372,568.436523 
	C627.870789,561.141602 627.901306,554.307983 627.847900,547.475098 
	C627.687805,527.002319 627.494934,506.529816 627.592407,486.041565 
	C628.245789,486.016846 628.621643,486.007812 628.997559,485.998779 
M695.145325,561.588379 
	C695.845032,561.916870 696.544800,562.245300 697.244507,562.573792 
	C697.319580,562.154175 697.394592,561.734497 697.469604,561.314880 
	C696.727173,561.189697 695.984680,561.064575 695.145325,561.588379 
z"/>
<path fill="#323B43" opacity="1.000000" stroke="none" 
	d="
M508.798798,766.097778 
	C511.947327,770.813416 514.896240,775.224243 518.358582,780.403076 
	C512.867676,780.403076 508.095886,780.556702 503.347076,780.294617 
	C502.165375,780.229370 500.728912,779.053162 499.974976,777.987610 
	C497.188263,774.049133 494.347473,770.097595 492.091034,765.851318 
	C490.273254,762.430359 488.046753,761.035339 484.197662,761.497437 
	C481.275940,761.848206 478.278351,761.567017 474.969543,761.567017 
	C474.969543,767.814941 474.969543,773.761963 474.969543,780.026306 
	C469.708588,780.026306 464.789886,780.026306 459.547180,780.026306 
	C459.547180,758.329651 459.547180,736.632874 459.547180,715.325867 
	C472.340790,715.325867 485.008514,714.413757 497.473724,715.610779 
	C507.683777,716.591187 514.662048,723.103210 516.545654,733.918945 
	C518.297424,743.977844 514.288452,752.248230 503.947968,758.890564 
	C505.499695,761.193298 507.049438,763.493103 508.798798,766.097778 
M497.833130,746.418091 
	C501.844025,742.611877 502.364105,737.967285 500.370270,733.176880 
	C498.415070,728.479248 494.159393,726.993652 489.392731,726.904419 
	C484.641754,726.815491 479.887817,726.884949 475.113464,726.884949 
	C475.113464,734.616333 475.113464,741.829529 475.113464,750.555359 
	C482.832794,749.283508 490.024200,748.098633 497.833130,746.418091 
z"/>
<path fill="#3968AA" opacity="1.000000" stroke="none" 
	d="
M661.052734,454.007324 
	C665.361389,455.513062 670.928711,453.430237 673.563049,459.927612 
	C674.502930,462.246002 679.426331,463.321106 682.733887,464.210205 
	C686.550110,465.236023 690.157227,465.858307 690.712097,470.778137 
	C690.769775,471.289307 692.633606,471.697449 693.705688,471.974792 
	C697.065674,472.843994 700.489868,473.492065 703.798157,474.519073 
	C704.937561,474.872772 705.880188,476.017792 706.788574,476.925568 
	C708.638000,478.773895 710.067383,481.353607 712.261353,482.492004 
	C721.438843,487.253967 723.305603,490.907379 720.867310,500.965912 
	C720.518677,502.403992 720.315247,503.877319 720.067261,505.759796 
	C720.062073,506.592926 720.034241,507.000580 719.959351,507.710999 
	C717.303284,510.472992 714.842346,512.834106 715.372192,517.078918 
	C715.553467,518.530884 713.952026,520.205444 713.165100,521.778259 
	C712.121826,520.736084 711.013245,519.749390 710.061890,518.629150 
	C709.559326,518.037415 709.330750,517.212952 708.675110,515.874023 
	C703.920166,515.874023 698.952881,516.377014 694.175171,515.644104 
	C692.053284,515.318542 689.717163,512.834839 688.533081,510.735809 
	C686.461487,507.063202 684.427856,504.274109 679.720276,503.745483 
	C677.921997,503.543518 676.011841,501.206604 674.804688,499.405609 
	C669.161865,490.986755 662.208435,484.696259 652.140747,481.633301 
	C648.023071,480.380524 644.705078,476.498840 641.165161,473.128113 
	C647.888855,466.297852 654.470825,460.152588 661.052734,454.007324 
z"/>
<path fill="#323B43" opacity="1.000000" stroke="none" 
	d="
M423.877075,781.149658 
	C417.897858,779.923645 412.377075,778.682983 406.581726,777.380615 
	C406.596283,777.313782 406.330292,778.535767 406.013580,779.990723 
	C401.523376,779.990723 397.096588,779.990723 392.432007,779.990723 
	C392.432007,757.068970 392.432007,734.310425 392.432007,711.140808 
	C397.343872,711.140808 402.047607,711.140808 407.314911,711.140808 
	C407.314911,718.520630 407.314911,725.911926 407.314911,733.949829 
	C419.306549,726.799438 430.645905,726.499756 440.463776,735.812195 
	C448.715851,743.639587 449.983887,753.843018 446.392731,764.463928 
	C442.859833,774.912537 435.132538,780.134216 423.877075,781.149658 
M422.075317,768.976501 
	C429.307556,767.136841 432.773376,762.909180 433.051636,755.587402 
	C433.309082,748.812561 430.205139,743.720825 424.505005,741.883789 
	C419.152954,740.158936 414.192413,740.909851 410.365112,745.265015 
	C406.035492,750.191711 406.040070,755.993103 408.367584,761.680298 
	C410.651123,767.260071 415.294220,769.484863 422.075317,768.976501 
z"/>
<path fill="#3972B1" opacity="1.000000" stroke="none" 
	d="
M478.981934,321.898712 
	C482.135925,321.266235 485.304108,320.061768 488.440430,320.139771 
	C492.783020,320.247711 495.788635,318.880249 497.964874,314.692139 
	C496.110748,312.708649 494.213593,310.679108 492.092651,308.410217 
	C494.349731,304.974304 495.297424,301.799347 490.012726,300.122986 
	C489.194458,299.863434 488.925598,297.871887 488.450989,296.791260 
	C484.332245,295.038544 480.364410,292.181580 476.170776,291.798798 
	C466.170410,290.885956 462.112427,284.746521 459.005371,276.340637 
	C457.550507,272.404541 454.059021,269.216248 451.463013,265.709442 
	C450.488739,264.393402 449.565399,262.997711 448.383850,261.888733 
	C447.161163,260.741150 445.653351,259.897339 443.854279,258.879395 
	C446.564270,257.803131 449.690216,256.768097 453.474304,255.769638 
	C454.417816,255.563614 454.703186,255.321030 454.988525,255.078461 
	C455.704315,255.040649 456.420074,255.002823 457.736237,254.881531 
	C458.553253,254.549561 458.769928,254.301056 458.986572,254.052551 
	C470.428406,252.019257 481.870239,249.985947 494.112732,247.992676 
	C496.487915,247.960770 498.062408,247.888794 499.636932,247.816818 
	C509.068634,247.754410 518.500366,247.691986 528.680298,247.796448 
	C530.215332,247.997009 531.002136,248.030701 531.788940,248.064392 
	C535.417114,248.460266 539.045288,248.856140 542.917480,249.595749 
	C529.384216,249.627136 515.607117,249.308563 501.829620,249.011383 
	C500.333954,248.979126 498.733612,248.749191 497.363770,249.184052 
	C495.566040,249.754776 492.645447,250.735031 492.512360,251.821426 
	C492.185974,254.486206 492.525177,257.689545 493.833405,259.965240 
	C495.068604,262.113892 497.897980,262.759094 500.290497,260.489471 
	C500.609161,260.187195 501.397247,259.918091 501.667023,260.094330 
	C506.900696,263.513153 512.032898,258.664948 517.266235,259.924225 
	C518.624512,260.251068 520.467712,260.142303 521.616089,259.450226 
	C524.476624,257.726318 526.156799,257.952057 527.138184,261.375427 
	C527.349731,262.113281 528.581177,262.503326 529.172974,263.198212 
	C530.830322,265.144287 532.398865,267.166016 533.699280,269.406555 
	C529.196533,265.513092 524.733948,262.223419 518.388367,261.819153 
	C508.586884,261.194733 501.465607,265.325256 495.662292,273.020569 
	C495.229828,273.692078 495.081635,274.329712 494.914703,275.349213 
	C494.545197,277.482208 494.194397,279.233307 493.503662,281.065918 
	C493.373688,282.771606 493.583740,284.395874 493.828552,286.358154 
	C493.848480,287.148651 493.833649,287.601105 493.582153,288.307068 
	C493.036194,291.765320 493.113739,294.784302 497.085907,296.310181 
	C503.832245,303.407013 510.414917,310.206146 516.793884,317.282776 
	C515.383606,319.723022 514.176941,321.885773 512.560913,324.038818 
	C506.091095,323.349213 500.044434,322.467560 493.965912,322.052460 
	C488.990967,321.712677 483.978027,321.928955 478.981934,321.898712 
z"/>
<path fill="#3A60A5" opacity="1.000000" stroke="none" 
	d="
M402.992462,337.993500 
	C398.707031,332.908813 394.442871,327.805817 390.107391,322.764160 
	C389.602356,322.176849 388.726898,321.629181 387.982483,321.569305 
	C379.565552,320.892517 374.782166,314.816254 369.879395,309.149231 
	C368.814209,307.917999 369.226074,305.408966 368.985443,303.104553 
	C380.249878,294.348541 391.486511,285.976410 403.034515,277.536713 
	C402.817108,278.988892 402.288330,280.508606 401.928192,281.543701 
	C403.990845,283.599915 406.041229,285.691772 408.154694,287.717896 
	C408.699890,288.240570 409.499512,288.980255 410.086761,288.902130 
	C416.042877,288.109924 418.560577,292.888062 422.090942,296.071228 
	C423.002655,296.893311 424.224487,297.365662 425.281738,298.033691 
	C426.366241,298.718964 427.664246,299.245850 428.453674,300.189392 
	C433.461029,306.174561 438.383453,312.231964 443.241638,318.338928 
	C443.786255,319.023560 443.751862,320.168823 443.518066,321.513641 
	C437.399872,321.941864 431.749420,321.987457 426.099243,321.963867 
	C419.832214,321.937714 414.280853,323.849152 410.057343,328.526917 
	C407.430176,331.436676 405.329468,334.821747 402.992462,337.993500 
z"/>
<path fill="#323B43" opacity="1.000000" stroke="none" 
	d="
M274.330566,778.760376 
	C261.760406,772.984192 263.761627,775.879517 268.498505,763.286987 
	C275.617615,765.307007 282.574554,767.634644 289.705750,769.132812 
	C292.614746,769.743958 296.099976,769.079041 298.944183,767.997864 
	C300.731842,767.318298 302.786530,764.871277 302.942627,763.063599 
	C303.098907,761.253479 301.503174,758.447754 299.858582,757.508179 
	C296.750580,755.732544 293.079254,754.911194 289.601349,753.823181 
	C285.480377,752.534058 281.255432,751.556641 277.184662,750.132263 
	C270.037018,747.631287 265.918335,742.574890 265.599976,734.890198 
	C265.281677,727.208069 268.473938,721.054199 275.311493,717.627075 
	C288.987457,710.772278 302.596069,712.675354 316.583008,718.741211 
	C315.003387,722.846069 313.605255,726.479248 312.216522,730.088013 
	C307.706512,728.794189 303.660370,727.118103 299.467590,726.575317 
	C295.268341,726.031738 290.739014,725.924011 286.713409,726.986145 
	C284.477325,727.576172 281.772491,730.815369 281.523834,733.104431 
	C281.326691,734.918701 284.158081,738.106079 286.318329,738.941101 
	C293.429718,741.689941 300.950684,743.364502 308.116882,745.990723 
	C314.572632,748.356567 318.525635,753.211487 318.716583,760.320068 
	C318.904419,767.312683 316.169189,773.244995 309.964722,776.614502 
	C305.964111,778.787109 301.297089,780.805420 296.884064,780.904663 
	C289.509094,781.070435 282.098389,779.645447 274.330566,778.760376 
z"/>
<path fill="#364A99" opacity="1.000000" stroke="none" 
	d="
M622.433350,641.093018 
	C613.516663,634.305542 605.069397,627.339050 596.350403,620.731201 
	C593.157532,618.311401 589.194153,616.928467 585.854431,614.669983 
	C584.857361,613.995728 584.759949,611.963806 584.294373,610.539612 
	C583.932983,609.434082 583.919495,607.549316 583.271729,607.310120 
	C578.867859,605.683960 574.385559,603.421631 569.837341,603.194580 
	C556.440979,602.526062 543.002136,602.708374 529.770752,602.244202 
	C553.611084,601.971863 577.261230,601.920410 600.909851,602.091614 
	C613.533447,602.182983 622.456177,596.978760 627.335693,585.230469 
	C628.298645,586.534119 628.938843,587.677856 629.743713,588.690735 
	C634.471863,594.640930 639.532043,600.353760 643.900146,606.555237 
	C647.469055,611.622009 651.669922,614.885010 657.991699,614.995300 
	C647.364380,625.174500 635.834351,634.134521 622.433350,641.093018 
z"/>
<path fill="#323B43" opacity="1.000000" stroke="none" 
	d="
M625.144531,764.996826 
	C625.134705,760.505310 625.220825,756.508362 625.095825,752.518127 
	C624.888794,745.908447 621.939026,742.399658 616.298645,741.814758 
	C609.480774,741.107788 604.322205,744.112610 603.146545,750.421082 
	C602.273621,755.104614 602.507507,760.008423 602.404663,764.817444 
	C602.298462,769.784302 602.381042,774.755188 602.381042,780.005310 
	C597.482178,780.005310 592.871094,780.005310 587.941284,780.005310 
	C587.941284,763.391907 587.941284,746.696594 587.941284,729.758362 
	C592.487000,729.758362 596.899719,729.758362 601.533447,729.758362 
	C601.697144,731.534363 601.845032,733.139709 602.047607,735.338745 
	C607.415466,730.845215 613.229797,728.606506 619.999756,728.824463 
	C631.318237,729.188904 639.413940,736.352173 639.903870,747.676086 
	C640.362732,758.282410 640.002014,768.924255 640.002014,779.906982 
	C635.058777,779.906982 630.347839,779.906982 625.145630,779.906982 
	C625.145630,775.049683 625.145630,770.272095 625.144531,764.996826 
z"/>
<path fill="#37539E" opacity="1.000000" stroke="none" 
	d="
M658.305176,614.879578 
	C651.669922,614.885010 647.469055,611.622009 643.900146,606.555237 
	C639.532043,600.353760 634.471863,594.640930 629.743713,588.690735 
	C628.938843,587.677856 628.298645,586.534119 627.271301,584.898682 
	C626.989746,583.898071 627.019287,583.449707 627.255798,582.881592 
	C627.723389,582.543091 627.860962,582.263672 627.859009,581.898682 
	C627.842529,581.873718 627.810181,581.823303 627.810181,581.823303 
	C628.206787,580.155579 628.922852,578.492371 628.946167,576.819458 
	C629.063416,568.390930 629.000000,559.959900 629.000000,551.529785 
	C629.457336,551.208557 629.914673,550.887329 630.372009,550.566101 
	C631.950195,551.796814 633.588074,552.959229 635.092529,554.274292 
	C637.338928,556.237915 639.153381,559.113953 641.740112,560.199890 
	C655.392883,565.931519 665.498108,575.940125 675.169983,586.628113 
	C676.508057,588.106689 678.638794,588.867798 680.772705,590.011108 
	C673.634766,598.295349 666.126709,606.529602 658.305176,614.879578 
z"/>
<path fill="#323B43" opacity="1.000000" stroke="none" 
	d="
M367.752441,780.215698 
	C366.131226,778.983948 364.901794,777.749756 363.132751,775.973755 
	C363.142853,775.967468 362.096954,776.551270 361.120148,777.233826 
	C347.071350,787.051575 328.520935,778.912170 327.294891,761.940979 
	C326.531372,751.371826 327.153015,740.702637 327.153015,729.838379 
	C332.095032,729.838379 336.852417,729.838379 342.094238,729.838379 
	C342.094238,739.061279 341.855072,748.030151 342.161224,756.980286 
	C342.469879,766.004089 348.612335,770.602905 356.375946,767.904541 
	C361.838287,766.005859 363.835876,761.471436 363.947662,756.139099 
	C364.128754,747.500305 363.996429,738.854919 363.996429,729.908447 
	C369.060333,729.908447 373.798523,729.908447 378.755615,729.908447 
	C378.755615,746.722046 378.755615,763.283081 378.755615,780.213196 
	C375.074310,780.213196 371.609253,780.213196 367.752441,780.215698 
z"/>
<path fill="#323B43" opacity="1.000000" stroke="none" 
	d="
M547.081238,729.068481 
	C567.759033,727.746582 580.280945,740.103455 577.497498,759.034912 
	C565.152161,759.034912 552.747070,759.034912 540.070129,759.034912 
	C540.463928,763.946350 543.213623,766.523926 547.088806,768.140869 
	C553.120911,770.657837 559.999939,769.187195 566.899902,763.822571 
	C569.306580,766.440247 571.742310,769.089600 574.148682,771.706970 
	C568.370483,780.201843 554.762390,783.441467 542.403076,779.408691 
	C530.854675,775.640564 524.523438,766.218933 524.904480,753.368713 
	C525.270935,741.012146 532.826233,732.597107 547.081238,729.068481 
M552.372009,740.130432 
	C544.043884,740.726257 540.220154,744.071289 540.337585,750.606873 
	C548.083618,750.606873 555.825623,750.606873 563.823853,750.606873 
	C562.709473,744.296997 559.253113,740.907654 552.372009,740.130432 
z"/>
<path fill="#342F8E" opacity="1.000000" stroke="none" 
	d="
M732.034546,746.519104 
	C732.041321,747.009338 732.048096,747.499573 731.714233,748.410767 
	C728.289978,752.689941 725.206482,756.548279 722.122925,760.406494 
	C717.802734,765.662170 713.332092,770.803711 709.223145,776.219604 
	C707.023315,779.119141 704.738159,780.629150 700.916260,780.292969 
	C696.457153,779.900818 691.937073,780.201355 686.291443,780.201355 
	C694.839661,768.842346 702.876343,758.163086 711.182983,747.125122 
	C703.284180,736.416626 695.345032,725.653442 686.799988,714.068848 
	C693.203064,714.068848 698.630310,713.877869 704.028015,714.193420 
	C705.510925,714.280029 707.276855,715.584717 708.276367,716.838013 
	C712.738403,722.433044 716.969910,728.211853 721.717041,734.393311 
	C725.444458,738.747986 728.739502,742.633545 732.034546,746.519104 
z"/>
<path fill="#323B43" opacity="1.000000" stroke="none" 
	d="
M669.950928,764.403320 
	C672.669678,769.872253 674.343994,770.351379 681.683350,768.118896 
	C681.953674,768.434631 682.387390,768.742493 682.545898,769.155823 
	C686.217468,778.727722 684.771729,780.794922 674.265503,781.047852 
	C661.450195,781.356506 655.115601,775.235840 655.058289,762.445312 
	C655.027893,755.665771 655.052856,748.885986 655.052856,741.953064 
	C652.226013,741.828491 649.945251,741.727966 647.317261,741.612122 
	C647.317261,737.954468 647.317261,734.414673 647.317261,730.575623 
	C649.808716,730.412048 652.219727,730.253662 654.964050,730.073425 
	C654.964050,725.924438 654.964050,721.978271 654.964050,717.725098 
	C660.040039,717.725098 664.765259,717.725098 669.921753,717.725098 
	C669.921753,721.899902 669.921753,725.827148 669.921753,730.116333 
	C674.257446,730.116333 678.184326,730.116333 682.506592,730.116333 
	C682.506592,733.878723 682.506592,737.274902 682.506592,741.175171 
	C678.623108,741.175171 674.557434,741.175171 669.913757,741.175171 
	C669.913757,749.089600 669.913757,756.523560 669.950928,764.403320 
z"/>
<path fill="#ADEB4C" opacity="1.000000" stroke="none" 
	d="
M732.379089,746.409973 
	C728.739502,742.633545 725.444458,738.747986 722.020020,734.557495 
	C729.395386,723.676636 736.758789,712.996155 744.463501,702.567810 
	C748.434814,697.192688 753.053162,696.172119 758.483215,698.559998 
	C763.303284,700.679688 765.618225,704.826294 765.021851,710.272217 
	C764.480469,715.215759 760.361694,718.815247 754.528870,720.045837 
	C752.808899,720.408752 750.892517,721.614441 749.827698,723.013489 
	C743.995483,730.676331 738.400269,738.519531 732.379089,746.409973 
z"/>
<path fill="#ADEB4C" opacity="1.000000" stroke="none" 
	d="
M722.328735,760.706543 
	C725.206482,756.548279 728.289978,752.689941 731.694214,748.655518 
	C733.688599,750.206299 735.547180,751.791199 737.003235,753.685425 
	C742.471436,760.799500 747.822693,768.003723 753.181946,775.200806 
	C754.223450,776.599365 755.104309,778.117615 756.735107,780.615906 
	C749.812866,780.615906 744.072815,780.680481 738.337585,780.543640 
	C737.512634,780.524048 736.490479,779.701477 735.932861,778.967102 
	C731.416382,773.018494 726.989075,767.002197 722.328735,760.706543 
z"/>
<path fill="#342F8E" opacity="1.000000" stroke="none" 
	d="
M438.605347,658.478455 
	C442.117462,659.280457 445.893433,660.362671 449.817139,661.784302 
	C446.266327,661.001953 442.567749,659.880310 438.605347,658.478455 
z"/>
<path fill="#342F8E" opacity="1.000000" stroke="none" 
	d="
M428.161133,654.286987 
	C429.573059,654.476440 431.210571,654.926575 432.895630,655.759460 
	C431.424377,655.610718 429.905548,655.079163 428.161133,654.286987 
z"/>
<path fill="#364A99" opacity="1.000000" stroke="none" 
	d="
M343.667816,330.109039 
	C343.440521,330.939423 342.937317,331.909027 342.088684,332.840759 
	C342.292786,331.951355 342.842346,331.099792 343.667816,330.109039 
z"/>
<path fill="#342F8E" opacity="1.000000" stroke="none" 
	d="
M435.253021,657.202393 
	C435.979309,657.145630 436.951538,657.309387 437.960022,657.807129 
	C437.163849,657.901794 436.331421,657.662354 435.253021,657.202393 
z"/>
<path fill="#357DB7" opacity="1.000000" stroke="none" 
	d="
M499.313660,247.677811 
	C498.062408,247.888794 496.487915,247.960770 494.565063,248.044540 
	C495.807922,247.883835 497.399170,247.711319 499.313660,247.677811 
z"/>
<path fill="#3972B1" opacity="1.000000" stroke="none" 
	d="
M549.910767,250.623795 
	C548.606018,250.852692 547.088928,250.747131 545.302490,250.380463 
	C546.588318,250.176025 548.143372,250.232681 549.910767,250.623795 
z"/>
<path fill="#357DB7" opacity="1.000000" stroke="none" 
	d="
M531.562134,247.918747 
	C531.002136,248.030701 530.215332,247.997009 529.028442,247.925476 
	C529.530640,247.849457 530.433044,247.811279 531.562134,247.918747 
z"/>
<path fill="#3972B1" opacity="1.000000" stroke="none" 
	d="
M553.603027,251.013535 
	C553.096008,251.278061 552.231995,251.400528 551.190430,251.285156 
	C551.757202,250.988693 552.501587,250.930084 553.603027,251.013535 
z"/>
<path fill="#342F8E" opacity="1.000000" stroke="none" 
	d="
M590.350586,657.099365 
	C590.764832,656.744385 591.498413,656.385132 592.562744,655.999390 
	C592.152222,656.346924 591.411072,656.721008 590.350586,657.099365 
z"/>
<path fill="#353890" opacity="1.000000" stroke="none" 
	d="
M312.069489,387.320129 
	C312.220367,387.616180 312.205414,388.180542 311.918213,388.776520 
	C311.731842,388.401581 311.817749,387.994995 312.069489,387.320129 
z"/>
<path fill="#3A60A5" opacity="1.000000" stroke="none" 
	d="
M405.597290,275.952423 
	C405.969391,276.132019 406.092987,276.343231 406.216553,276.554474 
	C405.885498,276.654663 405.554474,276.754822 404.966064,276.774048 
	C404.776825,276.325714 404.990173,276.089355 405.597290,275.952423 
z"/>
<path fill="#37599F" opacity="1.000000" stroke="none" 
	d="
M703.391113,554.301514 
	C703.310486,554.071716 703.517761,553.695496 704.034607,553.203796 
	C704.122498,553.443848 703.900757,553.799500 703.391113,554.301514 
z"/>
<path fill="#3968AA" opacity="1.000000" stroke="none" 
	d="
M458.716003,254.063278 
	C458.769928,254.301056 458.553253,254.549561 458.098083,254.879028 
	C458.054840,254.664658 458.250153,254.369339 458.716003,254.063278 
z"/>
<path fill="#3968AA" opacity="1.000000" stroke="none" 
	d="
M454.689758,255.075684 
	C454.703186,255.321030 454.417816,255.563614 453.846527,255.847473 
	C453.837372,255.616806 454.114166,255.344849 454.689758,255.075684 
z"/>
<path fill="#3A60A5" opacity="1.000000" stroke="none" 
	d="
M404.519470,276.718872 
	C404.600830,276.996124 404.413818,277.321533 403.926636,277.610260 
	C403.834686,277.304718 404.042877,277.035858 404.519470,276.718872 
z"/>
<path fill="#45535A" opacity="1.000000" stroke="none" 
	d="
M516.997559,317.005280 
	C510.414917,310.206146 503.832245,303.407013 497.069519,295.950012 
	C495.865906,292.879242 494.842346,290.466400 493.818787,288.053528 
	C493.833649,287.601105 493.848480,287.148651 493.895752,285.942017 
	C493.899994,283.786682 493.871796,282.385559 493.843628,280.984436 
	C494.194397,279.233307 494.545197,277.482208 495.170837,275.194763 
	C495.612640,274.101196 495.779572,273.543945 495.946533,272.986694 
	C501.465607,265.325256 508.586884,261.194733 518.388367,261.819153 
	C524.733948,262.223419 529.196533,265.513092 533.705872,269.769257 
	C538.430969,274.175751 542.846375,278.468170 547.629395,283.253052 
	C554.341614,290.136261 560.686218,296.527008 567.030884,302.917755 
	C570.177429,306.180847 573.323914,309.443939 576.885132,313.137573 
	C578.546387,314.685333 579.793030,315.802582 581.039612,316.919830 
	C581.039612,316.919830 581.016235,316.982880 581.164307,317.282410 
	C584.553528,320.697693 587.794739,323.813416 591.035950,326.929138 
	C591.035950,326.929138 591.008423,326.990540 591.158020,327.287476 
	C600.558350,336.678253 609.809082,345.772095 619.059814,354.865936 
	C619.059814,354.865936 619.074036,354.925537 619.203979,355.239532 
	C620.905396,356.988342 622.476868,358.423157 624.048401,359.857971 
	C624.248230,360.146729 624.448059,360.435516 624.984253,361.141022 
	C626.560303,362.679688 627.799988,363.801605 629.039612,364.923523 
	C629.039612,364.923523 629.012024,364.986572 629.161377,365.283936 
	C632.553955,368.683716 635.797180,371.786133 639.040405,374.888519 
	C639.535095,375.505890 640.029785,376.123260 640.920654,377.165161 
	C649.891174,386.032013 658.465454,394.474365 667.039734,402.916687 
	C667.039734,402.916687 667.019958,402.979126 667.164062,403.266479 
	C668.184875,404.077393 669.061523,404.600952 669.938171,405.124542 
	C670.416992,405.686432 670.895874,406.248322 671.624756,406.933105 
	C672.327820,407.917084 672.582336,409.002838 673.264038,409.605194 
	C682.246033,417.541748 680.827881,435.093445 672.135010,442.527405 
	C668.270264,445.832520 664.961060,449.787292 661.226196,453.727264 
	C654.470825,460.152588 647.888855,466.297852 641.162964,472.756470 
	C640.336670,472.884888 639.654358,472.699951 638.959839,471.784271 
	C638.948059,464.559296 639.027161,458.063507 638.900635,451.571747 
	C638.862793,449.628448 638.340088,447.675232 637.886841,445.762726 
	C635.609497,436.154083 629.633728,428.920868 622.763855,422.241272 
	C609.285950,409.136749 595.746582,396.092865 582.432190,382.823639 
	C572.420349,372.845825 562.822754,362.453247 552.854248,352.430756 
	C541.006287,340.518585 528.958618,328.804962 516.997559,317.005280 
z"/>
<path fill="#3972B1" opacity="1.000000" stroke="none" 
	d="
M619.036743,354.514160 
	C609.809082,345.772095 600.558350,336.678253 591.188965,327.274231 
	C592.400452,327.498810 594.059753,327.696136 595.008667,328.621704 
	C602.612183,336.038300 610.104736,343.569672 617.555908,351.140015 
	C618.298645,351.894684 618.539734,353.143127 619.036743,354.514160 
z"/>
<path fill="#3972B1" opacity="1.000000" stroke="none" 
	d="
M667.023682,402.559753 
	C658.465454,394.474365 649.891174,386.032013 641.201904,377.279602 
	C642.287048,377.384186 643.813843,377.463898 644.635986,378.265900 
	C651.820862,385.275421 658.900574,392.393585 665.939941,399.549988 
	C666.557007,400.177338 666.663757,401.306641 667.023682,402.559753 
z"/>
<path fill="#3972B1" opacity="1.000000" stroke="none" 
	d="
M567.018494,302.560425 
	C560.686218,296.527008 554.341614,290.136261 547.920959,283.411560 
	C549.098755,283.753906 550.638306,284.163635 551.558960,285.150665 
	C556.789856,290.758484 561.872864,296.504242 567.018494,302.560425 
z"/>
<path fill="#3972B1" opacity="1.000000" stroke="none" 
	d="
M591.021729,326.570618 
	C587.794739,323.813416 584.553528,320.697693 581.195984,317.271179 
	C586.233826,318.064606 588.985229,321.747131 591.021729,326.570618 
z"/>
<path fill="#3972B1" opacity="1.000000" stroke="none" 
	d="
M639.024536,374.533691 
	C635.797180,371.786133 632.553955,368.683716 629.193237,365.270874 
	C634.229370,366.047760 636.956421,369.749695 639.024536,374.533691 
z"/>
<path fill="#3972B1" opacity="1.000000" stroke="none" 
	d="
M624.028442,359.499512 
	C622.476868,358.423157 620.905396,356.988342 619.233643,355.246826 
	C620.758484,356.340454 622.383423,357.740753 624.028442,359.499512 
z"/>
<path fill="#3972B1" opacity="1.000000" stroke="none" 
	d="
M581.022461,316.553162 
	C579.793030,315.802582 578.546387,314.685333 577.193604,313.269409 
	C578.393372,314.042633 579.699341,315.114532 581.022461,316.553162 
z"/>
<path fill="#3972B1" opacity="1.000000" stroke="none" 
	d="
M629.022827,364.557495 
	C627.799988,363.801605 626.560303,362.679688 625.226074,361.255554 
	C626.422913,362.032684 627.714478,363.112061 629.022827,364.557495 
z"/>
<path fill="#3972B1" opacity="1.000000" stroke="none" 
	d="
M669.916138,404.770264 
	C669.061523,404.600952 668.184875,404.077393 667.195435,403.257111 
	C668.019836,403.445587 668.957031,403.930756 669.916138,404.770264 
z"/>
<path fill="#46515A" opacity="1.000000" stroke="none" 
	d="
M375.293335,534.139282 
	C374.185822,533.080200 373.380371,532.162903 372.174286,530.848877 
	C371.180847,529.971313 370.587982,529.490417 369.995117,529.009460 
	C365.541962,524.377930 361.185699,519.648315 356.616364,515.134338 
	C345.428497,504.082153 344.424652,490.254944 356.598022,478.839661 
	C359.235779,476.366180 361.409180,473.397522 363.950562,470.355103 
	C366.205963,468.456146 368.307251,466.858978 371.045258,465.083130 
	C373.124207,463.271088 374.566406,461.637756 376.008606,460.004425 
	C376.008606,460.004425 376.000000,460.000000 376.319794,459.975342 
	C377.394348,459.291901 378.149109,458.633087 378.903900,457.974304 
	C379.855133,456.862885 380.806335,455.751495 382.238525,454.291229 
	C383.800232,452.298218 384.881012,450.654083 385.961761,449.009918 
	C385.961761,449.009918 386.014160,448.546143 386.397278,448.342285 
	C387.835236,450.768677 388.890106,453.398926 389.944946,456.029175 
	C389.932922,458.392212 389.920929,460.755280 389.771851,463.899170 
	C389.447754,466.121185 389.260681,467.562317 389.073608,469.003448 
	C389.062714,470.070435 389.051819,471.137390 389.039795,473.008057 
	C390.367920,477.536804 391.697113,481.261841 393.026306,484.986877 
	C393.564453,485.821655 394.102570,486.656403 394.858459,488.090637 
	C398.721802,492.452820 402.367432,496.215576 406.013062,499.978333 
	C409.473938,503.557434 412.934814,507.136536 416.744934,511.193420 
	C421.067871,515.439148 425.041534,519.207092 429.015228,522.975037 
	C430.240692,524.128967 431.466156,525.282837 432.888794,527.038757 
	C433.723755,528.099854 434.361572,528.559021 434.999390,529.018127 
	C434.999390,529.018127 435.454224,529.043823 435.680969,529.044434 
	C437.153320,530.751282 438.203186,532.651855 439.674835,534.133545 
	C454.677094,549.238403 469.746552,564.276489 484.800323,579.330200 
	C493.360535,587.890320 501.970001,596.401855 510.475586,605.015869 
	C516.865845,611.487610 523.126038,618.087769 529.731812,625.208618 
	C530.691223,628.184570 531.363037,630.582642 532.034912,632.980713 
	C532.023499,634.055603 532.012085,635.130493 532.022705,636.608337 
	C530.891113,643.013000 528.930420,648.270813 524.156128,652.824402 
	C518.898865,657.838623 512.863770,657.968079 506.707550,657.823303 
	C500.904968,657.686768 496.130615,654.749268 491.938568,650.539673 
	C454.544037,612.988953 417.045929,575.541382 379.572449,538.069336 
	C378.278168,536.775085 376.922424,535.542358 375.293335,534.139282 
z"/>
<path fill="#29C5C7" opacity="1.000000" stroke="none" 
	d="
M529.748108,566.861816 
	C525.135437,569.454102 520.639587,572.300598 515.847473,574.502441 
	C514.141724,575.286133 511.278717,575.253479 509.688385,574.322266 
	C494.096680,565.192383 478.605438,555.886414 463.209778,546.428406 
	C456.590881,542.362244 451.289124,536.933838 448.176086,528.837769 
	C447.278137,523.787170 446.149231,519.365662 446.133057,514.940002 
	C445.992462,476.460938 445.944336,437.980499 446.186279,399.502441 
	C446.216614,394.677673 448.090607,389.864471 449.394623,384.878418 
	C454.040161,378.059326 460.163818,374.143097 468.255920,372.923584 
	C468.501953,372.946960 468.987885,372.856628 469.455688,372.889893 
	C475.963928,372.891937 482.004364,372.860718 488.485779,372.890930 
	C491.601715,372.912292 494.276611,372.872162 497.420654,372.872559 
	C503.948792,372.666962 510.007812,372.420868 516.441284,372.343689 
	C529.443237,372.660980 542.070557,372.887238 554.698486,372.937927 
	C570.184082,373.000092 579.897766,382.569855 579.975464,398.069427 
	C580.023804,407.720642 580.019958,417.372162 580.008057,427.488892 
	C579.963989,439.254395 580.029541,450.555267 579.921875,461.854553 
	C579.724182,482.597321 579.424438,503.339142 579.095825,524.396240 
	C579.016724,525.141602 579.009216,525.572021 578.950562,526.208496 
	C578.899353,526.414490 578.900269,526.838989 578.650635,527.088013 
	C574.510803,538.422119 565.798584,544.789978 556.204773,550.484375 
	C547.966125,555.374329 540.004395,560.730896 531.920166,565.881104 
	C531.920166,565.881104 531.990234,565.992676 531.641846,565.936279 
	C530.778381,566.207214 530.263245,566.534485 529.748108,566.861816 
M551.015808,435.054901 
	C551.325684,432.609833 551.857910,430.168640 551.900208,427.718933 
	C551.995239,422.225677 550.781372,421.006927 545.173767,420.993408 
	C523.689026,420.941650 502.203857,420.923737 480.719635,421.041931 
	C479.129395,421.050659 477.545654,422.237976 475.449860,423.198273 
	C475.275452,423.758575 475.101013,424.318878 474.387177,425.533020 
	C474.294495,441.489929 474.193237,457.446777 474.142670,473.403809 
	C474.140778,474.001526 474.631958,474.600830 474.842712,476.056549 
	C475.514954,490.562378 483.260406,500.528717 495.290253,507.644928 
	C512.381409,517.755066 512.408691,517.721130 529.412964,508.273041 
	C541.619385,501.490723 549.939941,491.810638 551.041809,477.412628 
	C551.738037,468.315643 551.584473,459.153625 551.878967,449.097321 
	C551.499695,444.673218 551.120422,440.249146 551.015808,435.054901 
z"/>
<path fill="#29C5C7" opacity="1.000000" stroke="none" 
	d="
M627.048767,583.001343 
	C627.019287,583.449707 626.989746,583.898071 627.024658,584.678223 
	C622.456177,596.978760 613.533447,602.182983 600.909851,602.091614 
	C577.261230,601.920410 553.611084,601.971863 529.495361,601.929626 
	C525.422852,600.118347 521.816467,598.308105 516.593750,595.686523 
	C524.161377,591.069702 530.367676,587.283386 537.033630,583.173401 
	C537.689758,582.590393 537.886169,582.331177 538.082642,582.071899 
	C538.082642,582.071899 537.991028,582.042847 538.323120,582.055298 
	C539.108704,581.725403 539.562073,581.383057 540.015442,581.040710 
	C540.015442,581.040710 540.005981,581.008179 540.264771,580.947266 
	C540.709595,580.619385 540.895569,580.352356 541.081543,580.085327 
	C541.081543,580.085327 540.992981,580.080566 541.341797,580.086914 
	C542.179810,579.756165 542.669006,579.419067 543.158264,579.081909 
	C543.678711,578.884094 544.199219,578.686218 545.215149,578.195923 
	C555.461914,571.939819 565.333557,566.162170 574.929871,559.958496 
	C584.016235,554.084534 590.685181,546.314941 592.098267,534.598755 
	C592.473511,532.568909 592.962463,530.943176 592.966064,529.316467 
	C592.994812,516.199524 592.932251,503.082397 592.941895,489.500763 
	C592.986023,472.741180 592.980957,456.446198 592.987183,440.151184 
	C592.991699,428.464569 592.998474,428.464569 604.784668,429.014191 
	C616.947754,429.581360 626.906494,439.917603 627.034363,452.158112 
	C627.152344,463.457550 627.223267,474.757477 627.314880,486.057190 
	C627.494934,506.529816 627.687805,527.002319 627.847900,547.475098 
	C627.901306,554.307983 627.870789,561.141602 627.664429,568.743530 
	C627.610718,572.042114 627.771118,574.571960 627.931458,577.101807 
	C627.891113,578.416382 627.850769,579.730957 627.810303,581.434448 
	C627.810181,581.823303 627.842529,581.873718 627.641418,582.004089 
	C627.197205,582.372498 627.066711,582.661499 627.048767,583.001343 
z"/>
<path fill="#364A99" opacity="1.000000" stroke="none" 
	d="
M449.110352,385.045929 
	C448.090607,389.864471 446.216614,394.677673 446.186279,399.502441 
	C445.944336,437.980499 445.992462,476.460938 446.133057,514.940002 
	C446.149231,519.365662 447.278137,523.787170 447.920471,528.608154 
	C447.471313,528.739746 446.992828,528.473755 446.261475,528.101318 
	C443.179260,518.929993 444.059723,509.792877 444.704254,500.491577 
	C445.255951,492.529907 443.984711,484.441864 443.472015,475.585358 
	C441.647156,476.862946 440.421204,477.721252 439.196442,478.580811 
	C437.996033,477.319305 436.794403,476.056519 435.592773,474.793762 
	C434.940094,474.967987 434.287415,475.142242 433.634735,475.316498 
	C433.634735,481.674408 433.634735,488.032349 433.316681,494.230988 
	C433.022675,469.041779 433.046722,444.011841 433.317383,418.768005 
	C433.402466,417.375519 433.240967,416.196991 433.055298,414.614777 
	C433.046539,413.133331 433.061981,412.055542 433.357239,410.676147 
	C433.455933,404.592438 433.274841,398.810394 433.071594,392.625092 
	C433.370361,390.147736 433.691223,388.073608 434.284973,385.869843 
	C434.704071,384.827393 434.850250,383.914612 435.006714,382.704773 
	C435.311249,381.920746 435.605499,381.433746 436.338379,380.966309 
	C440.888153,382.339203 444.999237,383.692566 449.110352,385.045929 
z"/>
<path fill="#364A99" opacity="1.000000" stroke="none" 
	d="
M591.987122,535.002441 
	C590.685181,546.314941 584.016235,554.084534 574.929871,559.958496 
	C565.333557,566.162170 555.461914,571.939819 545.364136,577.953003 
	C544.850403,577.213196 544.936523,575.959778 544.475769,575.708313 
	C540.765381,573.683105 541.289368,571.735413 545.311890,569.855713 
	C540.519409,568.368164 536.643005,567.164978 532.343384,565.921387 
	C540.004395,560.730896 547.966125,555.374329 556.204773,550.484375 
	C565.798584,544.789978 574.510803,538.422119 578.854004,527.393555 
	C580.458435,528.562866 582.086304,529.466858 582.681091,530.823669 
	C585.659851,537.619141 585.564758,537.660828 591.987122,535.002441 
z"/>
<path fill="#342F8E" opacity="1.000000" stroke="none" 
	d="
M532.303589,632.737061 
	C531.363037,630.582642 530.691223,628.184570 530.007324,625.393250 
	C530.854248,627.497803 531.713257,629.995605 532.303589,632.737061 
z"/>
<path fill="#364A99" opacity="1.000000" stroke="none" 
	d="
M530.078979,566.886841 
	C530.263245,566.534485 530.778381,566.207214 531.608643,565.882080 
	C531.419128,566.226868 530.914490,566.569397 530.078979,566.886841 
z"/>
<path fill="#364A99" opacity="1.000000" stroke="none" 
	d="
M539.711182,581.047363 
	C539.562073,581.383057 539.108704,581.725403 538.359314,582.086914 
	C538.511169,581.755493 538.959045,581.404724 539.711182,581.047363 
z"/>
<path fill="#364A99" opacity="1.000000" stroke="none" 
	d="
M542.837402,579.072632 
	C542.669006,579.419067 542.179810,579.756165 541.384155,580.102295 
	C541.557373,579.761963 542.036987,579.412598 542.837402,579.072632 
z"/>
<path fill="#364A99" opacity="1.000000" stroke="none" 
	d="
M540.845337,580.162109 
	C540.895569,580.352356 540.709595,580.619385 540.279846,580.954956 
	C540.118103,580.682373 540.309082,580.420837 540.845337,580.162109 
z"/>
<path fill="#364A99" opacity="1.000000" stroke="none" 
	d="
M537.848267,582.146545 
	C537.886169,582.331177 537.689758,582.590393 537.247925,582.909180 
	C537.113647,582.643616 537.317383,582.394470 537.848267,582.146545 
z"/>
<path fill="#1591CB" opacity="1.000000" stroke="none" 
	d="
M435.899719,380.946777 
	C435.605499,381.433746 435.311249,381.920746 434.744141,382.909790 
	C434.318237,384.274414 434.165161,385.136963 434.012085,385.999481 
	C433.691223,388.073608 433.370361,390.147736 433.029236,393.087708 
	C433.031830,399.628296 433.054626,405.303040 433.077454,410.977753 
	C433.061981,412.055542 433.046539,413.133331 433.017456,415.009735 
	C433.026123,416.866211 433.048431,417.924042 433.070740,418.981903 
	C433.046722,444.011841 433.022675,469.041779 433.037354,494.540009 
	C433.076111,495.008301 432.991760,495.450256 432.574097,495.702942 
	C430.105133,496.298248 428.053833,496.640869 426.002533,496.983521 
	C414.375092,495.884979 407.216492,489.185883 403.030243,478.042969 
	C402.708984,476.888458 402.440796,476.386292 402.172607,475.884125 
	C402.172577,475.884125 402.153351,475.446320 402.120850,474.773285 
	C402.276184,468.732941 402.463989,463.365662 402.651794,457.998352 
	C402.714569,455.960541 402.777374,453.922729 402.754395,451.453247 
	C402.562653,434.268982 402.456696,417.516327 402.195862,400.377777 
	C402.320709,390.311066 402.600342,380.630280 402.900116,370.018005 
	C402.896149,360.051849 402.872070,351.017181 402.847961,341.982513 
	C402.901276,340.919312 402.954620,339.856079 403.000214,338.393188 
	C405.329468,334.821747 407.430176,331.436676 410.057343,328.526917 
	C414.280853,323.849152 419.832214,321.937714 426.099243,321.963867 
	C431.749420,321.987457 437.399872,321.941864 443.515320,321.881165 
	C455.336853,321.875702 466.693268,321.915894 478.515808,321.927368 
	C483.978027,321.928955 488.990967,321.712677 493.965912,322.052460 
	C500.044434,322.467560 506.091095,323.349213 512.621887,324.367706 
	C523.815552,332.507324 525.863464,343.588074 525.047241,355.857056 
	C524.854370,358.756317 523.861877,360.077484 520.883301,360.028809 
	C516.251282,359.953094 511.615936,360.076752 506.515625,360.083191 
	C498.026733,360.054108 490.004181,360.057739 481.540833,360.032532 
	C478.740387,360.020691 476.380798,360.037720 473.590210,360.037933 
	C471.433716,360.032990 469.708221,360.044830 467.612610,360.029297 
	C466.501190,360.023834 465.759857,360.045746 464.604980,360.052399 
	C462.087128,360.365051 459.905426,360.441833 457.891693,361.063141 
	C447.503662,364.267944 439.207367,369.872070 435.899719,380.946777 
z"/>
<path fill="#364092" opacity="1.000000" stroke="none" 
	d="
M429.155090,522.651794 
	C425.041534,519.207092 421.067871,515.439148 417.045258,511.336212 
	C422.962738,508.713745 428.929138,506.426270 435.498260,503.907715 
	C436.921753,507.273529 436.019928,511.057465 433.711914,514.783752 
	C432.177826,517.260437 430.763092,519.811035 429.155090,522.651794 
z"/>
<path fill="#364092" opacity="1.000000" stroke="none" 
	d="
M406.150635,499.665955 
	C402.367432,496.215576 398.721802,492.452820 395.045776,488.344604 
	C396.571564,488.820007 398.127808,489.640839 399.889587,490.570099 
	C403.903229,487.083771 406.344696,491.284271 409.233337,493.117737 
	C409.647980,493.380951 409.274017,495.436157 408.786102,496.425995 
	C408.236298,497.541290 407.144379,498.389343 406.150635,499.665955 
z"/>
<path fill="#364092" opacity="1.000000" stroke="none" 
	d="
M390.245117,455.752991 
	C388.890106,453.398926 387.835236,450.768677 386.405334,448.109070 
	C386.943268,447.435883 387.880432,446.267731 388.761810,446.308380 
	C389.513794,446.343109 390.742645,447.722870 390.813019,448.584991 
	C390.998718,450.859833 390.669495,453.176697 390.245117,455.752991 
z"/>
<path fill="#364092" opacity="1.000000" stroke="none" 
	d="
M393.290527,484.762207 
	C391.697113,481.261841 390.367920,477.536804 389.065796,473.407532 
	C390.580139,476.848053 392.067444,480.692780 393.290527,484.762207 
z"/>
<path fill="#364A99" opacity="1.000000" stroke="none" 
	d="
M402.297729,458.126068 
	C402.463989,463.365662 402.276184,468.732941 402.074829,474.559082 
	C402.022034,469.429840 401.982819,463.841827 402.297729,458.126068 
z"/>
<path fill="#364092" opacity="1.000000" stroke="none" 
	d="
M389.443237,468.996277 
	C389.260681,467.562317 389.447754,466.121185 389.773193,464.342255 
	C391.007935,463.776428 392.104309,463.548431 393.200684,463.320404 
	C393.554260,463.641510 393.907806,463.962616 394.261383,464.283722 
	C392.778534,465.852173 391.295685,467.420624 389.443237,468.996277 
z"/>
<path fill="#364092" opacity="1.000000" stroke="none" 
	d="
M375.647766,460.038788 
	C374.566406,461.637756 373.124207,463.271088 371.339355,464.924500 
	C372.426758,463.320770 373.856842,461.696960 375.647766,460.038788 
z"/>
<path fill="#364A99" opacity="1.000000" stroke="none" 
	d="
M426.261536,497.269714 
	C428.053833,496.640869 430.105133,496.298248 432.556641,495.927246 
	C431.622589,499.602203 428.841949,497.687164 426.261536,497.269714 
z"/>
<path fill="#364092" opacity="1.000000" stroke="none" 
	d="
M385.666931,449.156006 
	C384.881012,450.654083 383.800232,452.298218 382.369263,453.994965 
	C383.136749,452.465729 384.254425,450.883911 385.666931,449.156006 
z"/>
<path fill="#364092" opacity="1.000000" stroke="none" 
	d="
M378.559723,457.988861 
	C378.149109,458.633087 377.394348,459.291901 376.321960,459.979675 
	C376.741394,459.340240 377.478485,458.671844 378.559723,457.988861 
z"/>
<path fill="#364092" opacity="1.000000" stroke="none" 
	d="
M434.959167,528.695740 
	C434.361572,528.559021 433.723755,528.099854 433.046143,527.320374 
	C433.643860,527.457764 434.281433,527.915588 434.959167,528.695740 
z"/>
<path fill="#3A60A5" opacity="1.000000" stroke="none" 
	d="
M402.135223,476.188141 
	C402.440796,476.386292 402.708984,476.888458 402.969727,477.686218 
	C402.674133,477.485260 402.385986,476.988708 402.135223,476.188141 
z"/>
<path fill="#3968AA" opacity="1.000000" stroke="none" 
	d="
M506.981995,360.115906 
	C511.615936,360.076752 516.251282,359.953094 520.883301,360.028809 
	C523.861877,360.077484 524.854370,358.756317 525.047241,355.857056 
	C525.863464,343.588074 523.815552,332.507324 513.031250,324.377441 
	C514.176941,321.885773 515.383606,319.723022 516.793884,317.282776 
	C528.958618,328.804962 541.006287,340.518585 552.854248,352.430756 
	C562.822754,362.453247 572.420349,372.845825 582.432190,382.823639 
	C595.746582,396.092865 609.285950,409.136749 622.763855,422.241272 
	C629.633728,428.920868 635.609497,436.154083 637.886841,445.762726 
	C638.340088,447.675232 638.862793,449.628448 638.900635,451.571747 
	C639.027161,458.063507 638.948059,464.559296 638.908447,471.519531 
	C633.582458,473.336853 629.022644,479.415100 628.997559,485.571564 
	C628.621643,486.007812 628.245789,486.016846 627.592407,486.041565 
	C627.223267,474.757477 627.152344,463.457550 627.034363,452.158112 
	C626.906494,439.917603 616.947754,429.581360 604.784668,429.014191 
	C592.998474,428.464569 592.991699,428.464569 592.987183,440.151184 
	C592.980957,456.446198 592.986023,472.741180 592.669312,489.196167 
	C592.233276,479.217407 591.502747,469.035278 592.218018,458.955719 
	C592.667603,452.620758 588.904907,449.156036 585.325806,446.038544 
	C582.278748,443.384521 581.211670,440.798584 580.979065,437.218689 
	C580.757812,433.814362 580.359802,430.421448 580.039551,427.023529 
	C580.019958,417.372162 580.023804,407.720642 579.975464,398.069427 
	C579.897766,382.569855 570.184082,373.000092 554.698486,372.937927 
	C542.070557,372.887238 529.443237,372.660980 516.412231,371.933868 
	C514.893860,366.605133 514.481628,361.263916 507.552032,361.423676 
	C507.372162,361.427826 507.172455,360.571136 506.981995,360.115906 
z"/>
<path fill="#342F8E" opacity="1.000000" stroke="none" 
	d="
M369.999817,529.337646 
	C370.587982,529.490417 371.180847,529.971313 371.893127,530.719177 
	C371.343201,530.546021 370.673859,530.105896 369.999817,529.337646 
z"/>
<path fill="#3A60A5" opacity="1.000000" stroke="none" 
	d="
M402.470062,342.093323 
	C402.872070,351.017181 402.896149,360.051849 402.853546,369.553070 
	C402.196381,369.175110 401.105804,368.337921 401.093384,367.484985 
	C400.978210,359.580750 401.029419,351.673645 401.109497,343.768127 
	C401.114838,343.243530 401.749969,342.725281 402.470062,342.093323 
z"/>
<path fill="#3968AA" opacity="1.000000" stroke="none" 
	d="
M627.961670,576.645996 
	C627.771118,574.571960 627.610718,572.042114 627.692261,569.205200 
	C627.953430,571.328857 627.972595,573.759460 627.961670,576.645996 
z"/>
<path fill="#3A60A5" opacity="1.000000" stroke="none" 
	d="
M695.193787,561.263916 
	C695.984680,561.064575 696.727173,561.189697 697.469604,561.314880 
	C697.394592,561.734497 697.319580,562.154175 697.244507,562.573792 
	C696.544800,562.245300 695.845032,561.916870 695.193787,561.263916 
z"/>
<path fill="#FEFEFE" opacity="1.000000" stroke="none" 
	d="
M497.524353,746.665894 
	C490.024200,748.098633 482.832794,749.283508 475.113464,750.555359 
	C475.113464,741.829529 475.113464,734.616333 475.113464,726.884949 
	C479.887817,726.884949 484.641754,726.815491 489.392731,726.904419 
	C494.159393,726.993652 498.415070,728.479248 500.370270,733.176880 
	C502.364105,737.967285 501.844025,742.611877 497.524353,746.665894 
z"/>
<path fill="#FEFEFE" opacity="1.000000" stroke="none" 
	d="
M421.660156,769.010498 
	C415.294220,769.484863 410.651123,767.260071 408.367584,761.680298 
	C406.040070,755.993103 406.035492,750.191711 410.365112,745.265015 
	C414.192413,740.909851 419.152954,740.158936 424.505005,741.883789 
	C430.205139,743.720825 433.309082,748.812561 433.051636,755.587402 
	C432.773376,762.909180 429.307556,767.136841 421.660156,769.010498 
z"/>
<path fill="#3A60A5" opacity="1.000000" stroke="none" 
	d="
M493.582153,288.307068 
	C494.842346,290.466400 495.865906,292.879242 496.905853,295.652283 
	C493.113739,294.784302 493.036194,291.765320 493.582153,288.307068 
z"/>
<path fill="#3A60A5" opacity="1.000000" stroke="none" 
	d="
M493.503632,281.065918 
	C493.871796,282.385559 493.899994,283.786682 493.860962,285.603943 
	C493.583740,284.395874 493.373688,282.771606 493.503632,281.065918 
z"/>
<path fill="#3A60A5" opacity="1.000000" stroke="none" 
	d="
M495.662292,273.020569 
	C495.779572,273.543945 495.612640,274.101196 495.189575,274.812897 
	C495.081635,274.329712 495.229828,273.692078 495.662292,273.020569 
z"/>
<path fill="#3968AA" opacity="1.000000" stroke="none" 
	d="
M627.255798,582.881592 
	C627.066711,582.661499 627.197205,582.372498 627.657898,582.029053 
	C627.860962,582.263672 627.723389,582.543091 627.255798,582.881592 
z"/>
<path fill="#FEFEFE" opacity="1.000000" stroke="none" 
	d="
M552.781250,740.153625 
	C559.253113,740.907654 562.709473,744.296997 563.823853,750.606873 
	C555.825623,750.606873 548.083618,750.606873 540.337585,750.606873 
	C540.220154,744.071289 544.043884,740.726257 552.781250,740.153625 
z"/>
<path fill="#37539E" opacity="1.000000" stroke="none" 
	d="
M551.812012,450.020813 
	C551.584473,459.153625 551.738037,468.315643 551.041809,477.412628 
	C549.939941,491.810638 541.619385,501.490723 529.412964,508.273041 
	C512.408691,517.721130 512.381409,517.755066 495.290253,507.644928 
	C483.260406,500.528717 475.514954,490.562378 474.905975,475.140137 
	C474.980713,469.066803 474.802399,463.899475 475.085510,458.757507 
	C475.222321,456.273376 476.226624,453.837036 476.727997,451.821777 
	C476.136292,449.083496 475.188873,446.478577 475.079651,443.838928 
	C474.818573,437.527710 474.952271,431.200134 474.926575,424.879181 
	C475.101013,424.318878 475.275452,423.758575 475.724976,423.460297 
	C476.486023,426.285156 476.971893,428.848022 477.457794,431.410858 
	C481.192719,432.636627 484.729706,434.217102 487.117584,436.842590 
	C491.167938,441.296051 494.325867,446.548553 498.195282,451.184448 
	C500.091125,453.455841 502.737885,455.102264 505.053406,457.021118 
	C507.756165,459.260864 510.433746,461.533112 513.189758,463.705597 
	C514.756531,464.940582 516.458313,466.004333 517.969421,467.447876 
	C516.086548,469.524841 514.355835,471.321655 512.576843,473.069427 
	C504.888184,480.623108 504.883026,480.617859 498.243958,472.097534 
	C502.101501,471.234009 501.380737,469.450348 499.699188,467.453796 
	C498.780609,466.363098 497.987030,465.104767 496.884583,464.246368 
	C495.359009,463.058411 493.063843,460.946411 492.032990,461.392151 
	C488.877716,462.756348 486.147522,465.125092 483.357971,467.242737 
	C483.235077,467.335999 484.156952,468.805389 483.962830,468.435913 
	C487.117004,467.902008 489.570312,467.486725 491.696777,467.148071 
	C488.976471,469.205505 486.582977,471.186340 484.103271,472.869476 
	C483.604584,472.230133 483.194092,471.885773 482.767822,471.562195 
	C482.757446,471.554260 482.572357,471.776367 482.468750,471.891144 
	C483.034851,472.323761 483.600922,472.756348 484.355530,473.444092 
	C491.195740,480.576447 497.847443,487.453674 504.645844,494.482605 
	C510.796112,488.725555 516.132874,483.764038 521.432007,478.762573 
	C531.570068,469.194031 541.686584,459.602692 551.812012,450.020813 
z"/>
<path fill="#37599F" opacity="1.000000" stroke="none" 
	d="
M518.099304,467.145172 
	C516.458313,466.004333 514.756531,464.940582 513.189758,463.705597 
	C510.433746,461.533112 507.756165,459.260864 505.053406,457.021118 
	C502.737885,455.102264 500.091125,453.455841 498.195282,451.184448 
	C494.325867,446.548553 491.167938,441.296051 487.117584,436.842590 
	C484.729706,434.217102 481.192719,432.636627 477.457794,431.410858 
	C476.971893,428.848022 476.486023,426.285156 475.979523,423.299866 
	C477.545654,422.237976 479.129395,421.050659 480.719635,421.041931 
	C502.203857,420.923737 523.689026,420.941650 545.173767,420.993408 
	C550.781372,421.006927 551.995239,422.225677 551.900208,427.718933 
	C551.857910,430.168640 551.325684,432.609833 550.591614,435.585327 
	C548.718140,437.464233 547.244080,438.787109 545.823792,440.165405 
	C536.935059,448.791260 528.058289,457.429443 518.923096,466.145599 
	C518.463562,466.508911 518.258484,466.790192 518.069763,467.086670 
	C518.086060,467.101868 518.099304,467.145172 518.099304,467.145172 
z"/>
<path fill="#37599F" opacity="1.000000" stroke="none" 
	d="
M580.008057,427.488892 
	C580.359802,430.421448 580.757812,433.814362 580.979065,437.218689 
	C581.211670,440.798584 582.278748,443.384521 585.325806,446.038544 
	C588.904907,449.156036 592.667603,452.620758 592.218018,458.955719 
	C591.502747,469.035278 592.233276,479.217407 592.624878,489.660767 
	C592.932251,503.082397 592.994812,516.199524 592.966064,529.316467 
	C592.962463,530.943176 592.473511,532.568909 592.098267,534.598755 
	C585.564758,537.660828 585.659851,537.619141 582.681091,530.823669 
	C582.086304,529.466858 580.458435,528.562866 579.103577,527.144531 
	C578.900269,526.838989 578.899353,526.414490 579.166504,526.073364 
	C579.344910,525.181946 579.256104,524.631653 579.167297,524.081360 
	C579.424438,503.339142 579.724182,482.597321 579.921875,461.854553 
	C580.029541,450.555267 579.963989,439.254395 580.008057,427.488892 
z"/>
<path fill="#37599F" opacity="1.000000" stroke="none" 
	d="
M506.515625,360.083191 
	C507.172455,360.571136 507.372162,361.427826 507.552032,361.423676 
	C514.481628,361.263916 514.893860,366.605133 516.037842,371.764954 
	C510.007812,372.420868 503.948792,372.666962 497.132141,372.622559 
	C493.597961,372.497894 490.821350,372.663696 488.044769,372.829498 
	C482.004364,372.860718 475.963928,372.891937 469.358276,372.750305 
	C468.531982,372.685059 468.270935,372.792603 468.009888,372.900177 
	C460.163818,374.143097 454.040161,378.059326 449.394623,384.878418 
	C444.999237,383.692566 440.888153,382.339203 436.338379,380.966309 
	C439.207367,369.872070 447.503662,364.267944 457.891693,361.063141 
	C459.905426,360.441833 462.087128,360.365051 464.790649,360.287903 
	C466.254211,360.378052 467.118500,360.217346 467.982758,360.056641 
	C469.708221,360.044830 471.433716,360.032990 473.860046,360.310150 
	C477.034485,360.419891 479.508057,360.240662 481.981659,360.061401 
	C490.004181,360.057739 498.026733,360.054108 506.515625,360.083191 
z"/>
<path fill="#91E250" opacity="1.000000" stroke="none" 
	d="
M519.177612,466.063538 
	C528.058289,457.429443 536.935059,448.791260 545.823792,440.165405 
	C547.244080,438.787109 548.718140,437.464233 550.454285,435.970398 
	C551.120422,440.249146 551.499695,444.673218 551.845520,449.559082 
	C541.686584,459.602692 531.570068,469.194031 521.432007,478.762573 
	C516.132874,483.764038 510.796112,488.725555 504.645844,494.482605 
	C497.847443,487.453674 491.195740,480.576447 484.275146,473.351501 
	C484.006256,473.003754 484.189514,473.167175 484.189514,473.167175 
	C486.582977,471.186340 488.976471,469.205505 491.915894,467.343018 
	C493.523438,468.339813 494.585022,469.218262 495.797607,470.338928 
	C496.282410,470.741791 496.616272,470.902374 496.968231,471.028595 
	C496.986359,470.994202 496.935913,471.055511 496.998230,471.315338 
	C497.355682,471.747467 497.650818,471.919800 497.912720,472.092560 
	C497.879486,472.092987 497.852570,472.153748 497.852570,472.153748 
	C504.883026,480.617859 504.888184,480.623108 512.576843,473.069427 
	C514.355835,471.321655 516.086548,469.524841 517.969421,467.447876 
	C518.099304,467.145172 518.086060,467.101868 518.330078,467.016693 
	C518.775269,466.642212 518.976440,466.352875 519.177612,466.063538 
z"/>
<path fill="#37599F" opacity="1.000000" stroke="none" 
	d="
M474.656860,425.206116 
	C474.952271,431.200134 474.818573,437.527710 475.079651,443.838928 
	C475.188873,446.478577 476.136292,449.083496 476.727997,451.821777 
	C476.226624,453.837036 475.222321,456.273376 475.085510,458.757507 
	C474.802399,463.899475 474.980713,469.066803 474.931305,474.711548 
	C474.631958,474.600830 474.140778,474.001526 474.142670,473.403809 
	C474.193237,457.446777 474.294495,441.489929 474.656860,425.206116 
z"/>
<path fill="#3968AA" opacity="1.000000" stroke="none" 
	d="
M488.485779,372.890930 
	C490.821350,372.663696 493.597961,372.497894 496.663025,372.582062 
	C494.276611,372.872162 491.601715,372.912292 488.485779,372.890930 
z"/>
<path fill="#364A99" opacity="1.000000" stroke="none" 
	d="
M579.095825,524.396240 
	C579.256104,524.631653 579.344910,525.181946 579.217712,525.867310 
	C579.009216,525.572021 579.016724,525.141602 579.095825,524.396240 
z"/>
<path fill="#3968AA" opacity="1.000000" stroke="none" 
	d="
M468.255920,372.923584 
	C468.270935,372.792603 468.531982,372.685059 468.890442,372.717072 
	C468.987885,372.856628 468.501953,372.946960 468.255920,372.923584 
z"/>
<path fill="#37599F" opacity="1.000000" stroke="none" 
	d="
M433.357239,410.676147 
	C433.054626,405.303040 433.031830,399.628296 433.051392,393.490967 
	C433.274841,398.810394 433.455933,404.592438 433.357239,410.676147 
z"/>
<path fill="#37599F" opacity="1.000000" stroke="none" 
	d="
M434.284973,385.869843 
	C434.165161,385.136963 434.318237,384.274414 434.733887,383.206848 
	C434.850250,383.914612 434.704071,384.827393 434.284973,385.869843 
z"/>
<path fill="#37599F" opacity="1.000000" stroke="none" 
	d="
M433.317352,418.768005 
	C433.048431,417.924042 433.026123,416.866211 433.041626,415.413391 
	C433.240967,416.196991 433.402466,417.375519 433.317352,418.768005 
z"/>
<path fill="#3968AA" opacity="1.000000" stroke="none" 
	d="
M481.540833,360.032532 
	C479.508057,360.240662 477.034485,360.419891 474.291046,360.326935 
	C476.380798,360.037720 478.740387,360.020691 481.540833,360.032532 
z"/>
<path fill="#3968AA" opacity="1.000000" stroke="none" 
	d="
M467.612610,360.029266 
	C467.118500,360.217346 466.254211,360.378052 465.204254,360.303223 
	C465.759857,360.045746 466.501190,360.023834 467.612610,360.029266 
z"/>
<path fill="#37599F" opacity="1.000000" stroke="none" 
	d="
M495.646606,470.096680 
	C494.585022,469.218262 493.523438,468.339813 492.242737,467.266418 
	C489.570312,467.486725 487.117004,467.902008 483.962830,468.435913 
	C484.156952,468.805389 483.235077,467.335999 483.357971,467.242737 
	C486.147522,465.125092 488.877716,462.756348 492.032990,461.392151 
	C493.063843,460.946411 495.359009,463.058411 496.884583,464.246368 
	C497.987030,465.104767 498.780609,466.363098 499.699188,467.453796 
	C501.380737,469.450348 502.101501,471.234009 498.243958,472.097534 
	C497.852570,472.153748 497.879486,472.092987 497.820068,471.854828 
	C497.485718,471.429626 497.210815,471.242554 496.935913,471.055481 
	C496.935913,471.055511 496.986359,470.994202 496.834259,470.773499 
	C496.337006,470.400757 495.991821,470.248718 495.646606,470.096680 
z"/>
<path fill="#37599F" opacity="1.000000" stroke="none" 
	d="
M484.086639,473.096344 
	C483.600922,472.756348 483.034851,472.323761 482.468750,471.891144 
	C482.572357,471.776367 482.757446,471.554260 482.767822,471.562195 
	C483.194092,471.885773 483.604584,472.230133 484.103302,472.869507 
	C484.189514,473.167175 484.006256,473.003754 484.086639,473.096344 
z"/>
<path fill="#37539E" opacity="1.000000" stroke="none" 
	d="
M518.923096,466.145569 
	C518.976440,466.352875 518.775269,466.642212 518.313782,467.001526 
	C518.258484,466.790192 518.463562,466.508911 518.923096,466.145569 
z"/>
<path fill="#37539E" opacity="1.000000" stroke="none" 
	d="
M495.797607,470.338928 
	C495.991821,470.248718 496.337006,470.400757 496.816132,470.807892 
	C496.616272,470.902374 496.282410,470.741791 495.797607,470.338928 
z"/>
<path fill="#37539E" opacity="1.000000" stroke="none" 
	d="
M496.998230,471.315308 
	C497.210815,471.242554 497.485718,471.429626 497.853271,471.854401 
	C497.650818,471.919800 497.355682,471.747467 496.998230,471.315308 
z"/>
</svg>