<svg xmlns="http://www.w3.org/2000/svg" viewBox="0 0 24 24" fill="none" stroke="#2E3192" stroke-width="2" stroke-linecap="round" stroke-linejoin="round">
    <path d="M3 12h2.5a.5.5 0 0 1 .5.5v5a.5.5 0 0 1-.5.5H3" />
    <path d="M12.5 12h-2a.5.5 0 0 0-.5.5v5a.5.5 0 0 0 .5.5h2" />
    <path d="M21 12h-2.5a.5.5 0 0 0-.5.5v5a.5.5 0 0 0 .5.5H21" />
    <path d="M4.5 12V7a2.5 2.5 0 0 1 5 0v5" />
    <path d="M14.5 12V7a2.5 2.5 0 0 1 5 0v5" />
    <path d="M19 12a2.5 2.5 0 0 0-5 0" />
    <path d="M5 12a2.5 2.5 0 0 1 5 0" />
</svg>
